<?xml version="1.0" encoding="UTF-8" standalone="no"?>
<svg
   xmlns:dc="http://purl.org/dc/elements/1.1/"
   xmlns:cc="http://creativecommons.org/ns#"
   xmlns:rdf="http://www.w3.org/1999/02/22-rdf-syntax-ns#"
   xmlns:svg="http://www.w3.org/2000/svg"
   xmlns="http://www.w3.org/2000/svg"
   viewBox="0 0 801.93335 377.94666"
   height="377.94666"
   width="801.93335"
   xml:space="preserve"
   id="svg2"
   version="1.1"><metadata
     id="metadata8"><rdf:RDF><cc:Work
         rdf:about=""><dc:format>image/svg+xml</dc:format><dc:type
           rdf:resource="http://purl.org/dc/dcmitype/StillImage" /></cc:Work></rdf:RDF></metadata><defs
     id="defs6" /><g
     transform="matrix(1.3333333,0,0,-1.3333333,0,377.94667)"
     id="g10"><g
       transform="scale(0.1)"
       id="g12"><path
         id="path14"
         style="fill:#100f0d;fill-opacity:1;fill-rule:nonzero;stroke:none"
         d="m 4192.68,1603.38 c 0,-28.25 -17.28,-45.51 -45.54,-45.51 h -167.19 v 420.74 h 167.19 c 28.26,0 45.54,-17.27 45.54,-45.53 z m -32.19,426.26 h -221.48 c -7.74,0 -14.01,-6.27 -14.01,-14.02 v -494.76 c 0,-7.74 6.27,-14.02 14.01,-14.02 h 221.48 c 50.23,0 87.13,36.91 87.13,87.12 v 348.54 c 0,51 -36.9,87.14 -87.13,87.14" /><path
         id="path16"
         style="fill:#100f0d;fill-opacity:1;fill-rule:nonzero;stroke:none"
         d="m 4466.21,1328.78 h -167.64 c -7.75,0 -14.02,-6.28 -14.02,-14.01 v -54.41 c 0,-7.74 6.27,-14.01 14.02,-14.01 h 91.39 V 820 c 0,-7.738 6.27,-14.02 14.02,-14.02 h 62.23 c 7.75,0 14.02,6.282 14.02,14.02 v 494.77 c 0,7.73 -6.27,14.01 -14.02,14.01" /><path
         id="path18"
         style="fill:#100f0d;fill-opacity:1;fill-rule:nonzero;stroke:none"
         d="m 4144.01,908.809 c 0,-11.77 -9.43,-20.418 -21.21,-20.418 h -86.33 c -11.78,0 -21.21,8.648 -21.21,20.418 v 69.859 c 0,11.781 6.29,21.203 21.21,25.912 18.83,6.29 66.71,15.72 86.33,15.72 13.35,0 21.21,-8.66 21.21,-20.429 z m 7.06,197.011 c -38.47,0 -93.41,-9.42 -135.81,-22.75 v 142.88 c 0,11.78 9.43,20.4 21.21,20.4 h 151.04 c 7.75,0 14.01,6.27 14.01,14.01 v 54.41 c 0,7.73 -6.26,14.01 -14.01,14.01 H 4008.2 c -46.31,0 -83.2,-36.9 -83.2,-82.43 V 888.391 c 0,-45.512 36.1,-82.411 81.63,-82.411 h 144.44 c 46.31,0 83.2,36.899 83.2,82.411 v 135.019 c 0,45.53 -29.83,82.41 -83.2,82.41" /><path
         id="path20"
         style="fill:#100f0d;fill-opacity:1;fill-rule:nonzero;stroke:none"
         d="m 5042.43,2029.64 h -338.54 c -7.75,0 -14.03,-6.27 -14.03,-14.02 v -22.99 c 0,-7.74 6.28,-14.02 14.03,-14.02 h 142.19 v -457.75 c 0,-7.74 6.27,-14.02 14.02,-14.02 h 26.91 c 7.74,0 14.02,6.28 14.02,14.02 v 457.75 h 141.4 c 7.74,0 14.02,6.28 14.02,14.02 v 22.99 c 0,7.75 -6.28,14.02 -14.02,14.02" /><path
         id="path22"
         style="fill:#100f0d;fill-opacity:1;fill-rule:nonzero;stroke:none"
         d="m 4434.7,1692.08 87.91,269.26 87.13,-269.26 z m 287.95,-166.72 v 0 l -170.91,494.92 c -1.93,5.43 -7.13,9.36 -13.22,9.36 h -31.83 c -6.09,0 -11.29,-3.93 -13.22,-9.36 l -170.86,-494.83 v 0 c -0.51,-1.45 -0.85,-2.96 -0.85,-4.59 0,-7.74 6.27,-14.02 14.01,-14.02 h 26.05 c 6.02,0 11.12,3.84 13.1,9.16 l 0.06,-0.02 42.44,125.89 h 208.8 l 43.76,-125.45 v 0.03 c 1.87,-5.55 7.1,-9.61 13.28,-9.61 h 26.14 c 7.74,0 14.01,6.28 14.01,14.02 0,1.6 -0.27,3.07 -0.76,4.5" /><path
         id="path24"
         style="fill:#100f0d;fill-opacity:1;fill-rule:nonzero;stroke:none"
         d="m 5141.64,1692.08 87.92,269.26 87.13,-269.26 z m 287.95,-166.72 v 0 l -170.9,494.92 c -1.93,5.43 -7.14,9.36 -13.22,9.36 h -31.84 c -6.08,0 -11.28,-3.93 -13.21,-9.36 l -172.43,-493.97 1.57,-0.86 c -0.52,-1.45 -0.86,-2.96 -0.86,-4.59 0,-7.74 6.28,-14.02 14.03,-14.02 h 26.04 c 6.02,0 11.11,3.84 13.11,9.16 l 0.05,-0.02 42.44,125.89 h 208.8 l 43.76,-125.45 v 0.03 c 1.86,-5.55 7.09,-9.61 13.28,-9.61 h 26.13 c 7.74,0 14.02,6.28 14.02,14.02 0,1.6 -0.27,3.07 -0.77,4.5" /><path
         id="path26"
         style="fill:#100f0d;fill-opacity:1;fill-rule:nonzero;stroke:none"
         d="m 2204.12,1033.12 c -77.72,0 -131.53,-61.401 -131.53,-136.589 v -1.301 c 0,-75.05 55.08,-137.808 132.83,-137.808 77.66,0 131.55,61.406 131.55,136.609 v 1.199 c 0,75.192 -55.15,137.89 -132.85,137.89" /><path
         id="path28"
         style="fill:#100f0d;fill-opacity:1;fill-rule:nonzero;stroke:none"
         d="m 1730.46,1027.43 h -95.83 V 901.5 h 97.69 c 47.03,0 73.82,25.059 73.82,62.039 v 1.242 c 0,41.369 -28.71,62.649 -75.68,62.649" /><path
         id="path30"
         style="fill:#100f0d;fill-opacity:1;fill-rule:nonzero;stroke:none"
         d="m 2204.12,668.551 c -135.28,0 -232.39,100.738 -232.39,225.48 v 1.199 c 0,124.75 98.39,226.86 233.69,226.86 135.31,0 232.32,-100.91 232.32,-225.559 v -1.301 c 0,-124.609 -98.33,-226.679 -233.62,-226.679 z M 1930.08,1687.24 v 399.39 c 0,38.83 31.54,70.31 70.31,70.31 38.83,0 70.25,-31.48 70.25,-70.31 v -399.39 c 0,-38.73 -31.42,-70.27 -70.25,-70.27 -38.77,0 -70.31,31.54 -70.31,70.27 z M 1804.35,676.059 1710.37,816.25 h -75.74 V 676.059 h -96.49 v 438.481 h 200.43 c 103.28,0 165.34,-54.52 165.34,-144.7 v -1.289 c 0,-70.742 -38.12,-115.281 -93.93,-135.93 L 1917.12,676.059 Z M 1459.07,1619.8 v 601.87 c 0,38.79 31.47,70.31 70.37,70.31 38.76,0 70.26,-31.52 70.26,-70.31 V 1619.8 c 0,-38.76 -31.5,-70.29 -70.26,-70.29 -38.9,0 -70.37,31.53 -70.37,70.29 z m 305.83,-205.33 c 41.96,0 75.98,-33.98 75.98,-75.86 0,-41.96 -34.02,-75.89 -75.98,-75.89 -41.92,0 -75.92,33.93 -75.92,75.89 0,41.88 34,75.86 75.92,75.86 z m -70.31,1009.67 c 0,38.87 31.51,70.31 70.31,70.31 38.87,0 70.26,-31.44 70.26,-70.31 v -871.82 c 0,-38.78 -31.39,-70.33 -70.26,-70.33 -38.8,0 -70.31,31.55 -70.31,70.33 z M 1414.72,901.5 V 676.059 h -96.45 v 438.481 h 96.45 z m -191.19,920.83 v 601.81 c 0,38.87 31.55,70.31 70.36,70.31 38.76,0 70.26,-31.44 70.26,-70.31 v -601.81 c 0,-38.87 -31.5,-70.32 -70.26,-70.32 -38.81,0 -70.36,31.45 -70.36,70.32 z M 1211.56,805.691 c 0,-87.179 -66.37,-135.921 -160.97,-135.921 -66.395,0 -133.367,23.152 -185.992,70.152 l 56.922,68.308 c 39.453,-32.601 80.86,-53.308 131.05,-53.308 39.46,0 63.2,15.699 63.2,41.367 v 1.211 c 0,24.539 -15.08,37.02 -88.37,55.77 -88.173,22.589 -145.334,47.101 -145.334,134.101 v 1.258 c 0,79.511 63.907,132.161 153.464,132.161 63.92,0 118.54,-19.95 162.91,-55.78 l -50.12,-72.619 c -38.78,26.919 -77,43.249 -114.03,43.249 -36.935,0 -56.38,-16.92 -56.38,-38.242 v -1.386 c 0,-28.731 18.785,-38.032 94.62,-57.403 88.96,-23.289 139.03,-55.218 139.03,-131.711 z M 752.594,1687.24 v 399.39 c 0,38.83 31.461,70.31 70.312,70.31 38.793,0 70.227,-31.48 70.227,-70.31 v -399.39 c 0,-38.73 -31.434,-70.27 -70.227,-70.27 -38.851,0 -70.312,31.54 -70.312,70.27 z M 621.789,668.551 c -128.98,0 -224.859,99.59 -224.859,225.48 v 1.199 c 0,124.75 93.91,226.86 228.625,226.86 82.793,0 132.172,-27.69 172.937,-67.71 L 737.09,983.66 c -33.91,30.58 -68.285,49.46 -112.176,49.46 -73.867,0 -127.187,-61.401 -127.187,-136.589 v -1.301 c 0,-75.05 52.058,-137.808 127.187,-137.808 50.231,0 80.84,20.066 115.301,51.43 L 801.617,746.77 C 756.5,698.59 706.395,668.551 621.789,668.551 Z M 988.031,2289.18 c 0,38.83 31.499,70.31 70.349,70.31 38.8,0 70.33,-31.48 70.33,-70.31 v -534.36 c 0,-38.83 -31.53,-70.35 -70.33,-70.35 -38.85,0 -70.349,31.52 -70.349,70.35 z m 429.339,545.47 C 634.551,2834.65 0,2200.16 0,1417.36 0,634.52 634.551,0 1417.37,0 c 782.79,0 1417.35,634.52 1417.35,1417.36 0,782.8 -634.56,1417.29 -1417.35,1417.29" /><path
         id="path32"
         style="fill:#45be7f;fill-opacity:1;fill-rule:nonzero;stroke:none"
         d="m 3553.93,2301.13 v 0.01 0 l -0.02,0.02 v -57.92 c -0.03,-3.72 0.91,-7.49 2.9,-10.94 2.02,-3.49 4.87,-6.22 8.15,-8.06 l 50.03,-28.88 -0.02,0.03 h 0.01 v 0 c 6.34,-3.31 14.06,-3.76 20.71,0.08 l 888.38,512.9 c 6.64,3.83 10.12,10.75 10.41,17.89 h 0.01 v 0.01 l 0.01,-0.03 0.01,57.92 c 0.02,3.71 -0.91,7.49 -2.9,10.94 -2.02,3.49 -4.88,6.22 -8.15,8.06 l -50.04,28.88 0.02,-0.04 v 0.01 -0.01 c -6.34,3.32 -14.06,3.77 -20.71,-0.07 -100.09,-57.78 -888.12,-512.75 -888.38,-512.9 -6.64,-3.84 -10.12,-10.76 -10.42,-17.9" /><path
         id="path34"
         style="fill:#45be7f;fill-opacity:1;fill-rule:nonzero;stroke:none"
         d="m 3614.98,639.309 v 0.011 -0.011 l 0.01,0.031 -50.15,-28.961 c -3.24,-1.828 -6.04,-4.539 -8.03,-7.981 -2.01,-3.488 -2.95,-7.328 -2.9,-11.089 v -57.77 l 0.02,0.031 v 0 0 c 0.3,-7.14 3.78,-14.07 10.42,-17.898 L 4452.73,2.76953 c 6.65,-3.83984 14.37,-3.390624 20.71,-0.07812 h -0.01 0.01 l -0.02,-0.03125 50.17,28.94924 c 3.23,1.8398 6.03,4.5508 8.02,7.9922 2.01,3.4882 2.95,7.3398 2.9,11.0976 l -0.01,57.7618 -0.02,-0.031 h 0.01 -0.01 c -0.3,7.148 -3.77,14.058 -10.41,17.898 -100.09,57.781 -888.12,512.75 -888.38,512.902 -6.65,3.84 -14.37,3.391 -20.71,0.079" /><path
         id="path36"
         style="fill:#45be7f;fill-opacity:1;fill-rule:nonzero;stroke:none"
         d="m 4819.91,108.391 v 0.007 -0.007 l -0.02,0.031 V 50.5 c -0.03,-3.7109 0.91,-7.4883 2.9,-10.9414 2.02,-3.4883 4.88,-6.2188 8.16,-8.0469 l 50.03,-28.89061 -0.02,0.02735 h 0.01 v 0 c 6.33,-3.308596 14.06,-3.75782 20.71,0.08203 L 5790.05,515.629 c 6.65,3.84 10.12,10.75 10.42,17.902 v -0.011 0.011 l 0.02,-0.031 0.01,57.922 c 0.02,3.707 -0.92,7.488 -2.91,10.937 -2.01,3.493 -4.87,6.223 -8.16,8.051 l -50.02,28.891 0.02,-0.031 h -0.01 v -0.008 c -6.33,3.316 -14.06,3.769 -20.71,-0.071 -100.09,-57.781 -888.11,-512.75 -888.38,-512.902 -6.65,-3.84 -10.11,-10.75 -10.42,-17.898" /><path
         id="path38"
         style="fill:#45be7f;fill-opacity:1;fill-rule:nonzero;stroke:none"
         d="m 6004.23,1948.27 h 0.01 -0.01 0.04 l -50.16,28.96 c -3.2,1.88 -6.94,2.96 -10.93,2.96 -4.03,0 -7.82,-1.12 -11.05,-3.03 l -50.03,-28.89 h 0.04 -0.01 0.01 c -6.05,-3.83 -10.29,-10.3 -10.29,-17.98 V 904.488 c 0,-7.679 4.24,-14.148 10.28,-17.968 h -0.01 0.01 -0.03 l 50.16,-28.969 c 3.2,-1.879 6.94,-2.961 10.92,-2.961 4.04,0 7.83,1.121 11.06,3.031 l 50.03,28.899 h -0.04 v 0 0 c 6.03,3.82 10.29,10.289 10.29,17.968 0,115.572 0,1025.502 0,1025.802 0,7.68 -4.25,14.15 -10.29,17.98" /><path
         id="path40"
         style="fill:#45be7f;fill-opacity:1;fill-rule:nonzero;stroke:none"
         d="m 3472.27,1948.27 h 0.01 -0.01 0.03 l -50.15,28.96 c -3.21,1.88 -6.95,2.96 -10.93,2.96 -4.03,0 -7.83,-1.12 -11.06,-3.03 l -50.02,-28.89 h 0.03 v 0 0 c -6.04,-3.83 -10.3,-10.3 -10.3,-17.98 V 904.488 c 0,-7.679 4.26,-14.148 10.3,-17.968 h -0.01 0.01 -0.03 l 50.15,-28.969 c 3.21,-1.879 6.95,-2.961 10.93,-2.961 4.03,0 7.82,1.121 11.06,3.031 l 50.02,28.899 h -0.03 v 0 0 c 6.03,3.82 10.29,10.289 10.29,17.968 0,115.572 0,1025.502 0,1025.802 0,7.68 -4.26,14.15 -10.29,17.98" /></g></g></svg>