<?xml version="1.0" encoding="UTF-8" standalone="no"?>
<!-- Created with Inkscape (http://www.inkscape.org/) -->

<svg
   xmlns:dc="http://purl.org/dc/elements/1.1/"
   xmlns:cc="http://creativecommons.org/ns#"
   xmlns:rdf="http://www.w3.org/1999/02/22-rdf-syntax-ns#"
   xmlns:svg="http://www.w3.org/2000/svg"
   xmlns="http://www.w3.org/2000/svg"
   xmlns:sodipodi="http://sodipodi.sourceforge.net/DTD/sodipodi-0.dtd"
   xmlns:inkscape="http://www.inkscape.org/namespaces/inkscape"
   id="svg2"
   version="1.1"
   inkscape:version="0.91 r13725"
   xml:space="preserve"
   width="283.09399"
   height="189.48112"
   viewBox="0 0 283.09399 189.48112"
   sodipodi:docname="AusUnlimited.svg"><metadata
     id="metadata8"><rdf:RDF><cc:Work
         rdf:about=""><dc:format>image/svg+xml</dc:format><dc:type
           rdf:resource="http://purl.org/dc/dcmitype/StillImage" /><dc:title></dc:title></cc:Work></rdf:RDF></metadata><defs
     id="defs6"><clipPath
       clipPathUnits="userSpaceOnUse"
       id="clipPath18"><path
         d="M 0,560 960,560 960,0 0,0 0,560 Z"
         id="path20"
         inkscape:connector-curvature="0" /></clipPath><clipPath
       clipPathUnits="userSpaceOnUse"
       id="clipPath1054"><path
         d="m 834.399,263.996 -15.186,-4.029 c -3.413,-0.905 -4.12,-4.922 -0.341,-8.584 l 0,0 c 3.208,-3.107 7.583,-3.887 9.784,-1.086 l 0,0 7.267,11.823 c 0.331,0.564 0.251,1.099 -0.076,1.466 l 0,0 c -0.256,0.284 -0.65,0.451 -1.08,0.451 l 0,0 c -0.121,0 -0.244,-0.014 -0.368,-0.041"
         id="path1056"
         inkscape:connector-curvature="0" /></clipPath><linearGradient
       x1="0"
       y1="0"
       x2="1"
       y2="0"
       gradientUnits="userSpaceOnUse"
       gradientTransform="matrix(46.329212,-106.86854,-106.86854,-46.329212,791.57373,339.15359)"
       spreadMethod="pad"
       id="linearGradient1062"><stop
         style="stop-opacity:1;stop-color:#ffc63f"
         offset="0"
         id="stop1064" /><stop
         style="stop-opacity:1;stop-color:#f58400"
         offset="0.63742988"
         id="stop1066" /><stop
         style="stop-opacity:1;stop-color:#f58400"
         offset="1"
         id="stop1068" /></linearGradient><clipPath
       clipPathUnits="userSpaceOnUse"
       id="clipPath1076"><path
         d="m 827.744,355.089 -2.851,-1.366 c -3.026,-1.578 -4.65,-3.915 -5.22,-6.395 l 0,0 c -0.616,-2.681 -0.08,-5.437 0.92,-7.193 l 0,0 c 2.929,-5.148 22.07,-33.692 22.07,-33.692 l 0,0 c 0.597,-0.883 0.988,-2.006 0.972,-3.064 l 0,0 c -0.017,-0.985 -0.401,-1.91 -0.888,-2.667 l 0,0 -20.44,-31.413 c -0.315,-0.518 -0.32,-1.043 -0.082,-1.434 l 0,0 c 0.275,-0.452 0.849,-0.693 1.561,-0.514 l 0,0 16.174,4.493 c 0.992,0.293 1.787,0.672 2.435,1.197 l 0,0 c 0.54,0.439 0.972,0.977 1.386,1.602 l 0,0 15.947,25.164 c 1.737,2.796 1.486,5.316 -0.504,8.526 l 0,0 -28.198,45.912 c -0.411,0.608 -0.961,1.034 -1.648,1.137 l 0,0 c -0.104,0.016 -0.209,0.023 -0.316,0.023 l 0,0 c -0.409,0 -0.842,-0.112 -1.318,-0.316"
         id="path1078"
         inkscape:connector-curvature="0" /></clipPath><linearGradient
       x1="0"
       y1="0"
       x2="1"
       y2="0"
       gradientUnits="userSpaceOnUse"
       gradientTransform="matrix(46.331837,-106.87459,-106.87459,-46.331837,814.38623,349.04922)"
       spreadMethod="pad"
       id="linearGradient1084"><stop
         style="stop-opacity:1;stop-color:#ffc63f"
         offset="0"
         id="stop1086" /><stop
         style="stop-opacity:1;stop-color:#f58400"
         offset="0.63742988"
         id="stop1088" /><stop
         style="stop-opacity:1;stop-color:#f58400"
         offset="1"
         id="stop1090" /></linearGradient><clipPath
       clipPathUnits="userSpaceOnUse"
       id="clipPath1098"><path
         d="m 742.039,342.433 c -0.57,-0.141 -1.05,-0.502 -1.416,-1.023 l 0,0 -19.809,-31.866 c -1.993,-3.209 -2.241,-5.729 -0.505,-8.525 l 0,0 20.218,-32.41 c 0.441,-0.648 0.996,-1.099 1.639,-1.251 l 0,0 c 0.58,-0.139 1.202,-0.027 1.794,0.297 l 0,0 2.961,1.728 c 3.716,2.176 6.095,8.205 2.733,13.423 l 0,0 -11.745,18.122 c -1.882,2.898 -2.078,4.42 -0.08,7.453 l 0,0 11.532,17.568 c 1.966,3.005 2.405,5.969 1.793,8.529 l 0,0 c -0.628,2.626 -2.385,4.796 -4.698,6.2 l 0,0 -2.68,1.523 c -0.393,0.19 -0.802,0.296 -1.206,0.296 l 0,0 c -0.179,0 -0.356,-0.021 -0.531,-0.064"
         id="path1100"
         inkscape:connector-curvature="0" /></clipPath><linearGradient
       x1="0"
       y1="0"
       x2="1"
       y2="0"
       gradientUnits="userSpaceOnUse"
       gradientTransform="matrix(46.331516,-106.87385,-106.87385,-46.331516,736.76916,315.40155)"
       spreadMethod="pad"
       id="linearGradient1106"><stop
         style="stop-opacity:1;stop-color:#ffc63f"
         offset="0"
         id="stop1108" /><stop
         style="stop-opacity:1;stop-color:#f58400"
         offset="0.63742988"
         id="stop1110" /><stop
         style="stop-opacity:1;stop-color:#f58400"
         offset="1"
         id="stop1112" /></linearGradient></defs><sodipodi:namedview
     pagecolor="#ffffff"
     bordercolor="#666666"
     borderopacity="1"
     objecttolerance="10"
     gridtolerance="10"
     guidetolerance="10"
     inkscape:pageopacity="0"
     inkscape:pageshadow="2"
     inkscape:window-width="3226"
     inkscape:window-height="1854"
     id="namedview4"
     showgrid="false"
     inkscape:zoom="1.5"
     inkscape:cx="-246.18084"
     inkscape:cy="350.08853"
     inkscape:window-x="234"
     inkscape:window-y="0"
     inkscape:window-maximized="0"
     inkscape:current-layer="g10"
     fit-margin-top="0"
     fit-margin-left="0"
     fit-margin-right="0"
     fit-margin-bottom="0" /><g
     id="g10"
     inkscape:groupmode="layer"
     inkscape:label="ATIC-Stacked-CoBrand-RGB"
     transform="matrix(1.25,0,0,-1.25,-723.26378,277.21967)"><g
       id="g6271"
       transform="translate(-55.801723,-133.62926)"><g
         transform="translate(778.248,260.3575)"
         id="g974"><path
           inkscape:connector-curvature="0"
           id="path976"
           style="fill:#3d3935;fill-opacity:1;fill-rule:nonzero;stroke:none"
           d="m 0,0 c 1.493,0 2.305,0.652 2.305,2.225 0,1.568 -0.747,2.269 -2.275,2.267 -1.62,0 -2.264,-0.75 -2.264,-2.326 C -2.234,0.709 -1.488,0 0,0" /></g><g
         transform="translate(766.6357,230.2911)"
         id="g978"><path
           inkscape:connector-curvature="0"
           id="path980"
           style="fill:#3d3935;fill-opacity:1;fill-rule:nonzero;stroke:none"
           d="M 0,0 C 0.009,-0.162 0.037,-0.31 0.125,-0.428 0.262,-0.609 0.479,-0.717 0.71,-0.725 l 2.089,0 c 0.236,0.008 0.441,0.125 0.572,0.301 0.09,0.125 0.134,0.274 0.144,0.426 l 0,36.428 C 3.505,36.672 3.384,36.887 3.192,37.014 2.985,37.15 2.712,37.174 2.443,37.047 1.998,36.809 0.698,36.09 0.419,35.928 0.302,35.855 0.209,35.768 0.145,35.664 0.057,35.522 0.007,35.357 0,35.195 L 0,0 Z" /></g><g
         transform="translate(776.5342,230.2911)"
         id="g982"><path
           inkscape:connector-curvature="0"
           id="path984"
           style="fill:#3d3935;fill-opacity:1;fill-rule:nonzero;stroke:none"
           d="m 0,0 c 0.01,-0.16 0.051,-0.303 0.136,-0.42 0.135,-0.187 0.355,-0.299 0.591,-0.305 l 2.089,0 c 0.233,0.006 0.439,0.125 0.57,0.301 0.091,0.125 0.137,0.27 0.146,0.426 l 0,24.527 c -0.009,0.166 -0.066,0.33 -0.176,0.461 -0.131,0.157 -0.323,0.25 -0.54,0.264 l -2.089,0 C 0.529,25.24 0.341,25.17 0.205,25.031 0.08,24.904 0.01,24.729 0,24.529 L 0,0 Z" /></g><g
         transform="translate(704.8193,254.6036)"
         id="g986"><path
           inkscape:connector-curvature="0"
           id="path988"
           style="fill:#3d3935;fill-opacity:1;fill-rule:nonzero;stroke:none"
           d="m 0,0 c -0.008,0.143 -0.046,0.299 -0.143,0.43 -0.093,0.127 -0.235,0.232 -0.428,0.279 -1.53,0.379 -4.013,0.877 -6.689,0.879 -7.128,0 -9.079,-4.168 -9.079,-6.928 0,-3.137 2.471,-5.467 5.578,-6.764 l 2.949,-1.242 c 2.173,-0.922 5.154,-2.113 5.154,-5.037 0,-2.111 -1.391,-4.166 -6.224,-4.166 -2.926,0 -4.719,0.344 -6.117,0.746 -0.478,0.143 -0.916,-0.254 -0.916,-0.697 l 0,-1.613 c 0.009,-0.176 0.055,-0.317 0.138,-0.426 0.111,-0.147 0.273,-0.236 0.425,-0.279 1.428,-0.377 3.837,-0.871 6.859,-0.871 7.747,0 9.534,4.496 9.534,7.203 0,3.728 -2.888,6.056 -6.255,7.464 l -2.432,1.03 c -4.931,2.054 -5.191,3.679 -5.191,4.709 0,1.246 0.88,3.736 5.483,3.736 2.643,0 5.141,-0.492 6.549,-0.824 0.283,-0.068 0.478,0.008 0.605,0.133 0.142,0.144 0.192,0.353 0.2,0.509 L 0,0" /></g><g
         transform="translate(760.2169,252.2442)"
         id="g990"><path
           inkscape:connector-curvature="0"
           id="path992"
           style="fill:#3d3935;fill-opacity:1;fill-rule:nonzero;stroke:none"
           d="m 0,0 c -1.36,3.027 -5.09,3.951 -8.102,3.951 -3.034,0 -5.347,-0.623 -7.911,-1.883 -0.28,-0.136 -0.498,-0.295 -0.645,-0.466 -0.149,-0.174 -0.222,-0.366 -0.227,-0.567 l 0,-1.551 c 0.011,-0.293 0.142,-0.507 0.336,-0.625 0.202,-0.121 0.46,-0.142 0.677,-0.035 2.185,1.217 4.632,1.987 7.151,1.987 3.213,0 5.838,-1.082 5.872,-4.873 l 0,-2.381 -1.652,0 c -9.017,0 -14.555,-3.516 -14.555,-9.311 0,-2.315 0.842,-3.949 2.155,-5.096 0.887,0.743 1.697,1.537 2.48,2.371 -0.621,0.684 -1.004,1.618 -1.004,2.893 0,5.625 6.842,6.385 11.218,6.385 l 1.327,0 0.034,-10.66 c -1.685,-0.381 -3.471,-0.436 -5.223,-0.436 -2.293,0 -4.943,0.265 -6.352,1.818 -0.783,-0.834 -1.593,-1.628 -2.48,-2.371 2.243,-1.958 5.867,-2.48 9.055,-2.48 2.661,0 5.287,0.33 7.92,0.812 0.194,0.053 0.339,0.141 0.437,0.272 0.094,0.123 0.132,0.281 0.142,0.453 l 0,17.731 C 0.653,-2.65 0.55,-1.303 0,0" /></g><g
         transform="translate(804.2275,252.2442)"
         id="g994"><path
           inkscape:connector-curvature="0"
           id="path996"
           style="fill:#3d3935;fill-opacity:1;fill-rule:nonzero;stroke:none"
           d="m 0,0 c -1.359,3.027 -5.089,3.951 -8.101,3.951 -3.034,0 -5.348,-0.623 -7.911,-1.883 -0.28,-0.136 -0.498,-0.295 -0.646,-0.466 -0.148,-0.174 -0.221,-0.366 -0.226,-0.567 l 0,-1.551 c 0.01,-0.293 0.141,-0.507 0.336,-0.625 0.201,-0.121 0.46,-0.142 0.677,-0.035 2.186,1.217 4.632,1.987 7.151,1.987 3.213,0 5.837,-1.082 5.872,-4.873 l 0,-2.381 -1.653,0 c -9.016,0 -14.554,-3.516 -14.554,-9.311 0,-1.377 0.31,-2.501 0.826,-3.437 0.999,0.759 2.072,1.282 3.164,1.71 -0.23,0.53 -0.364,1.153 -0.364,1.895 0,5.625 6.843,6.385 11.22,6.385 l 1.326,0 0.035,-10.66 c -1.686,-0.381 -3.471,-0.436 -5.224,-0.436 -2.716,0 -5.932,0.371 -6.993,2.816 -1.092,-0.428 -2.165,-0.951 -3.164,-1.71 1.836,-3.333 6.44,-4.139 10.384,-4.139 2.66,0 5.286,0.33 7.92,0.812 0.194,0.053 0.339,0.141 0.436,0.272 0.094,0.123 0.134,0.281 0.143,0.453 l 0,17.731 C 0.654,-2.65 0.549,-1.303 0,0" /></g><g
         transform="translate(661.4453,230.4903)"
         id="g998"><path
           inkscape:connector-curvature="0"
           id="path1000"
           style="fill:#3d3935;fill-opacity:1;fill-rule:nonzero;stroke:none"
           d="m 0,0 c -0.128,0.451 -9.486,31.736 -11.607,36.852 -0.061,0.129 -0.155,0.238 -0.279,0.314 -0.123,0.074 -0.276,0.109 -0.418,0.117 l -2.434,0 c -0.14,-0.008 -0.294,-0.041 -0.426,-0.14 -0.104,-0.077 -0.188,-0.188 -0.258,-0.34 -2.164,-5.295 -11.436,-36.309 -11.58,-36.799 -0.061,-0.244 -0.03,-0.473 0.087,-0.643 0.121,-0.175 0.324,-0.283 0.57,-0.289 l 2.386,0 c 0.201,0.006 0.355,0.057 0.471,0.16 0.098,0.084 0.164,0.204 0.216,0.344 0.094,0.297 2.539,8.584 2.539,8.584 l 7.586,0 c -0.177,1.051 -0.239,2.146 -0.258,3.145 l -6.391,0 6.261,21.701 6.381,-21.701 -6.251,0 c 0.019,-0.999 0.081,-2.094 0.258,-3.145 l 6.866,0 2.549,-8.601 c 0.047,-0.143 0.122,-0.252 0.224,-0.334 0.132,-0.1 0.298,-0.143 0.481,-0.151 l 2.31,0 c 0.325,0.008 0.529,0.129 0.639,0.299 C 0.047,-0.432 0.045,-0.182 0,0" /></g><g
         transform="translate(717.171,228.9142)"
         id="g1002"><path
           inkscape:connector-curvature="0"
           id="path1004"
           style="fill:#3d3935;fill-opacity:1;fill-rule:nonzero;stroke:none"
           d="m 0,0 c 0.809,0 1.617,0.049 2.413,0.156 0.448,0.061 0.88,0.115 1.31,0.248 0.189,0.059 0.361,0.186 0.469,0.352 0.075,0.115 0.109,0.242 0.119,0.387 l 0,0.752 0,0.781 C 4.301,2.896 4.202,3.1 4.032,3.234 3.872,3.363 3.662,3.414 3.428,3.373 2.378,3.152 1.365,3.033 0.266,3.033 c -3.311,0 -4.003,1.731 -4.003,4.705 l 0,15.692 6.673,0 c 0.194,0.009 0.387,0.088 0.524,0.232 0.125,0.127 0.197,0.297 0.205,0.492 l 0,1.748 c -0.008,0.201 -0.082,0.375 -0.209,0.502 -0.137,0.139 -0.326,0.213 -0.52,0.223 l -6.689,0 0,6.328 c -0.009,0.244 -0.133,0.459 -0.328,0.588 -0.206,0.135 -0.479,0.16 -0.743,0.029 C -5.271,33.334 -6.57,32.615 -6.85,32.455 -6.981,32.371 -7.082,32.27 -7.149,32.148 -7.219,32.016 -7.248,31.869 -7.252,31.721 -7.252,31.441 -7.255,7.629 -7.255,7.629 -7.255,2.539 -5.411,0 0,0" /></g><g
         transform="translate(740.1826,254.9376)"
         id="g1006"><path
           inkscape:connector-curvature="0"
           id="path1008"
           style="fill:#3d3935;fill-opacity:1;fill-rule:nonzero;stroke:none"
           d="m 0,0 c -0.006,0.146 -0.05,0.326 -0.166,0.477 -0.101,0.13 -0.248,0.242 -0.453,0.294 -0.746,0.184 -1.49,0.323 -2.3,0.323 -4.112,0 -7.03,-2.541 -8.331,-6.332 l 0,5.119 c -0.009,0.189 -0.073,0.363 -0.194,0.492 -0.133,0.143 -0.319,0.221 -0.53,0.231 l -1.825,0 c -0.215,-0.01 -0.389,-0.077 -0.517,-0.192 -0.153,-0.139 -0.23,-0.332 -0.237,-0.531 l 0,-24.529 c 0.007,-0.198 0.076,-0.368 0.197,-0.493 0.136,-0.146 0.328,-0.224 0.53,-0.232 l 2.09,0 c 0.217,0.008 0.414,0.109 0.545,0.267 0.106,0.129 0.164,0.29 0.17,0.458 l 0,12.484 c 0,2.762 0.489,5.355 2.463,7.416 1.496,1.508 3.47,2.375 5.578,2.373 0.747,-0.002 1.393,-0.066 2.096,-0.232 0.282,-0.063 0.5,0.029 0.649,0.177 0.154,0.155 0.227,0.364 0.235,0.526 L 0,0 Z" /></g><g
         transform="translate(664.7676,255.5411)"
         id="g1010"><path
           inkscape:connector-curvature="0"
           id="path1012"
           style="fill:#3d3935;fill-opacity:1;fill-rule:nonzero;stroke:none"
           d="M 0,0 C -0.218,-0.01 -0.4,-0.094 -0.523,-0.232 -0.65,-0.371 -0.712,-0.551 -0.72,-0.725 l 0,-14.05 c 0,-1.838 0,-4.108 0.647,-5.844 1.463,-4.217 5.773,-6.008 9.627,-6.008 1.943,0 4.053,0.432 5.839,1.41 4.211,2.379 4.501,6.547 4.501,11.256 l 0,13.236 c -0.01,0.186 -0.071,0.358 -0.186,0.485 -0.133,0.146 -0.325,0.23 -0.535,0.238 l -2.152,0 c -0.209,-0.01 -0.399,-0.092 -0.531,-0.236 -0.121,-0.133 -0.185,-0.305 -0.193,-0.487 0,-0.414 0.032,-15.021 0.032,-15.021 0,-3.901 -1.102,-7.74 -6.513,-7.74 -4.635,0 -7.034,2.377 -7.034,7.627 l 0,15.134 C 2.774,-0.572 2.732,-0.42 2.642,-0.295 2.517,-0.121 2.313,-0.01 2.057,0 L 0,0 Z" /></g><g
         transform="translate(733.1777,204.4923)"
         id="g1014"><path
           inkscape:connector-curvature="0"
           id="path1016"
           style="fill:#3d3935;fill-opacity:1;fill-rule:nonzero;stroke:none"
           d="m 0,0 c 0.003,-0.084 0.031,-0.174 0.09,-0.242 0.061,-0.072 0.154,-0.119 0.272,-0.123 l 1.507,0 c 0.113,0.004 0.205,0.051 0.27,0.123 0.06,0.07 0.094,0.158 0.097,0.242 l 0,17.605 c -0.003,0.084 -0.037,0.172 -0.097,0.243 -0.065,0.072 -0.157,0.119 -0.27,0.123 l -1.507,0 C 0.244,17.967 0.151,17.92 0.09,17.848 0.031,17.779 0.003,17.689 0,17.605 L 0,0 Z" /></g><g
         transform="translate(760.6729,204.4923)"
         id="g1018"><path
           inkscape:connector-curvature="0"
           id="path1020"
           style="fill:#3d3935;fill-opacity:1;fill-rule:nonzero;stroke:none"
           d="m 0,0 c 0.003,-0.084 0.031,-0.174 0.09,-0.242 0.061,-0.072 0.154,-0.119 0.272,-0.123 l 1.508,0 c 0.112,0.004 0.204,0.051 0.268,0.123 C 2.2,-0.172 2.233,-0.084 2.236,0 l 0,17.605 C 2.233,17.689 2.2,17.777 2.138,17.848 2.074,17.92 1.982,17.967 1.87,17.971 l -1.508,0 C 0.244,17.967 0.151,17.92 0.09,17.848 0.031,17.779 0.003,17.689 0,17.605 L 0,0 Z" /></g><g
         transform="translate(770.6133,204.4923)"
         id="g1022"><path
           inkscape:connector-curvature="0"
           id="path1024"
           style="fill:#3d3935;fill-opacity:1;fill-rule:nonzero;stroke:none"
           d="m 0,0 c 0.005,-0.084 0.032,-0.174 0.09,-0.242 0.062,-0.072 0.154,-0.119 0.273,-0.123 l 1.535,0 c 0.112,0.004 0.204,0.051 0.268,0.123 0.061,0.07 0.095,0.158 0.098,0.242 l 0,16.023 4.355,0 c 0.085,0.002 0.173,0.03 0.242,0.09 0.072,0.061 0.119,0.153 0.123,0.274 l 0,1.22 c -0.004,0.112 -0.051,0.204 -0.123,0.266 -0.069,0.063 -0.16,0.096 -0.242,0.1 l -11.001,0 c -0.082,-0.004 -0.172,-0.037 -0.242,-0.1 -0.072,-0.062 -0.118,-0.154 -0.123,-0.266 l 0,-1.22 c 0.005,-0.121 0.051,-0.213 0.123,-0.274 0.069,-0.06 0.158,-0.088 0.242,-0.09 L 0,16.023 0,0 Z" /></g><g
         transform="translate(729.7783,204.1271)"
         id="g1026"><path
           inkscape:connector-curvature="0"
           id="path1028"
           style="fill:#3d3935;fill-opacity:1;fill-rule:nonzero;stroke:none"
           d="M 0,0 C 0.084,0.002 0.172,0.029 0.241,0.088 0.314,0.15 0.359,0.244 0.365,0.361 l 0,1.199 C 0.359,1.672 0.314,1.764 0.241,1.828 0.171,1.891 0.082,1.922 0,1.926 l -6.46,0 0,16.045 c -0.003,0.084 -0.036,0.171 -0.099,0.242 -0.063,0.072 -0.155,0.119 -0.267,0.123 l -1.529,0 C -8.476,18.332 -8.567,18.285 -8.629,18.213 -8.688,18.145 -8.72,18.055 -8.725,17.971 l 0,-17.61 C -8.72,0.244 -8.679,0.15 -8.604,0.088 -8.536,0.029 -8.447,0.002 -8.363,0 L 0,0 Z" /></g><g
         transform="translate(716.4395,204.1271)"
         id="g1030"><path
           inkscape:connector-curvature="0"
           id="path1032"
           style="fill:#3d3935;fill-opacity:1;fill-rule:nonzero;stroke:none"
           d="M 0,0 C 0.085,0.002 0.173,0.029 0.242,0.088 0.315,0.15 0.355,0.244 0.361,0.361 l 0,17.61 c -0.004,0.084 -0.036,0.174 -0.094,0.242 -0.063,0.072 -0.155,0.119 -0.274,0.123 l -1.508,0 c -0.108,-0.004 -0.205,-0.047 -0.27,-0.123 -0.056,-0.065 -0.088,-0.149 -0.088,-0.242 0.026,-2.37 0.347,-15.647 0.347,-15.647 0,0 -6.833,15.625 -6.896,15.774 -0.028,0.06 -0.067,0.115 -0.116,0.156 -0.065,0.051 -0.146,0.078 -0.239,0.082 l -2.253,0 c -0.119,-0.004 -0.211,-0.051 -0.274,-0.123 -0.058,-0.068 -0.089,-0.158 -0.093,-0.242 l 0,-17.61 c 0.004,-0.117 0.045,-0.211 0.118,-0.273 0.069,-0.059 0.158,-0.086 0.242,-0.088 l 1.512,0 c 0.109,0.002 0.216,0.06 0.286,0.152 0.047,0.063 0.076,0.141 0.075,0.221 -0.018,2.4 -0.124,14.707 -0.124,14.707 0,0 6.652,-14.684 6.715,-14.834 C -2.543,0.178 -2.504,0.123 -2.452,0.08 -2.385,0.029 -2.299,0.002 -2.196,0 L 0,0 Z" /></g><g
         transform="translate(780.877,222.463)"
         id="g1034"><path
           inkscape:connector-curvature="0"
           id="path1036"
           style="fill:#3d3935;fill-opacity:1;fill-rule:nonzero;stroke:none"
           d="m 0,0 c -0.119,-0.004 -0.21,-0.051 -0.273,-0.123 -0.058,-0.068 -0.085,-0.158 -0.089,-0.242 l 0,-17.606 c 0.004,-0.084 0.031,-0.174 0.089,-0.242 0.063,-0.072 0.154,-0.119 0.273,-0.123 l 8.63,0 c 0.083,0.002 0.172,0.029 0.24,0.088 0.073,0.062 0.12,0.156 0.125,0.273 l 0,1.246 c -0.005,0.112 -0.052,0.204 -0.125,0.268 -0.068,0.063 -0.159,0.096 -0.24,0.098 l -6.8,0 0,6.482 6.179,0 c 0.085,0.002 0.174,0.031 0.242,0.09 0.072,0.062 0.119,0.154 0.124,0.271 l 0,1.04 c -0.005,0.113 -0.052,0.205 -0.124,0.269 -0.07,0.061 -0.16,0.094 -0.242,0.098 l -6.145,0 0,6.215 6.685,0 c 0.084,0.005 0.173,0.035 0.241,0.091 0.073,0.063 0.119,0.155 0.124,0.276 l 0,1.168 C 8.909,-0.252 8.863,-0.16 8.79,-0.098 8.721,-0.035 8.631,-0.002 8.549,0.002 L 0,0 Z" /></g><g
         transform="translate(743.6671,222.1817)"
         id="g1038"><path
           inkscape:connector-curvature="0"
           id="path1040"
           style="fill:#3d3935;fill-opacity:1;fill-rule:nonzero;stroke:none"
           d="M 0,0 C -0.023,0.09 -0.07,0.158 -0.128,0.203 -0.197,0.256 -0.28,0.277 -0.369,0.281 l -2.072,0 C -2.584,0.275 -2.678,0.229 -2.736,0.158 c -0.063,-0.072 -0.09,-0.16 -0.1,-0.224 -0.355,-3.401 -1.517,-17.44 -1.512,-17.614 0.002,-0.074 0.031,-0.154 0.078,-0.222 0.065,-0.088 0.161,-0.151 0.277,-0.153 l 1.523,0 c 0.13,0.002 0.23,0.061 0.29,0.153 0.043,0.062 0.063,0.14 0.073,0.22 0.013,0.194 0.93,14.348 0.93,14.348 0.228,-1.064 4.249,-14.256 4.302,-14.424 0.025,-0.074 0.059,-0.137 0.108,-0.185 0.066,-0.065 0.15,-0.098 0.244,-0.102 l 1.652,-0.01 c 0.122,0.004 0.208,0.037 0.265,0.094 0.06,0.059 0.087,0.129 0.106,0.197 0.031,0.131 4.161,13.469 4.425,14.534 0,0 0.867,-14.301 0.88,-14.469 0.009,-0.071 0.029,-0.143 0.068,-0.203 0.06,-0.09 0.154,-0.149 0.297,-0.153 l 1.453,0 c 0.149,0.004 0.251,0.059 0.31,0.153 0.043,0.068 0.064,0.152 0.065,0.246 0.002,0.228 -1.03,14.316 -1.412,17.615 -0.018,0.094 -0.064,0.168 -0.124,0.223 -0.073,0.064 -0.166,0.095 -0.253,0.099 l -2.051,0 C 9.081,0.277 9,0.256 8.934,0.211 8.867,0.164 8.828,0.096 8.801,0.01 8.697,-0.367 4.677,-13.529 4.357,-14.793 4.002,-13.521 0.075,-0.271 0,0" /></g><g
         transform="translate(700.5986,210.2931)"
         id="g1042"><path
           inkscape:connector-curvature="0"
           id="path1044"
           style="fill:#3d3935;fill-opacity:1;fill-rule:nonzero;stroke:none"
           d="m 0,0 c 0,-4.295 -1.986,-6.473 -5.906,-6.473 -2.283,0 -4.153,1.008 -5.128,2.768 -0.547,0.957 -0.751,1.961 -0.751,3.705 l 0,11.805 c 0.003,0.084 0.03,0.174 0.09,0.242 0.061,0.072 0.153,0.119 0.273,0.123 l 1.507,0 c 0.112,-0.004 0.204,-0.051 0.269,-0.123 0.06,-0.071 0.093,-0.158 0.096,-0.242 L -9.55,0 c 0,-3.066 1.21,-4.494 3.806,-4.494 2.427,0 3.508,1.387 3.508,4.494 l 0,11.805 c 0.005,0.084 0.031,0.174 0.09,0.242 0.062,0.072 0.154,0.119 0.274,0.123 l 1.507,0 c 0.112,-0.004 0.203,-0.051 0.268,-0.123 C -0.035,11.976 -0.003,11.889 0,11.805 L 0,0 Z" /></g><g
         transform="translate(804.8203,209.9259)"
         id="g1046"><path
           inkscape:connector-curvature="0"
           id="path1048"
           style="fill:#3d3935;fill-opacity:1;fill-rule:nonzero;stroke:none"
           d="m 0,0 c 0.437,1.209 0.658,2.48 0.658,3.777 0,2.539 -0.886,4.95 -2.374,6.444 -2.012,2.041 -4.43,2.32 -6.742,2.32 l -3.043,-0.004 c -0.119,-0.004 -0.211,-0.051 -0.274,-0.123 -0.057,-0.068 -0.085,-0.158 -0.089,-0.242 l 0,-17.606 c 0.004,-0.084 0.032,-0.173 0.089,-0.242 0.063,-0.072 0.155,-0.119 0.274,-0.123 l 2.585,0 c 1.489,0 2.769,0.106 4.165,0.621 0.857,0.317 1.637,0.801 2.324,1.423 -0.419,0.593 -0.844,1.172 -1.22,1.761 -0.514,-0.529 -1.134,-0.975 -1.887,-1.283 -1.098,-0.453 -2.036,-0.545 -3.193,-0.545 l -0.893,0 0,14.386 1.513,0 c 2.324,0 3.968,-0.668 5.033,-2.041 0.997,-1.263 1.443,-3.41 1.443,-4.974 0,-1.866 -0.565,-4.051 -2.016,-5.543 0.376,-0.589 0.801,-1.168 1.22,-1.761 C -1.376,-2.807 -0.542,-1.534 0,0" /></g><g
         id="g1050"><g
           clip-path="url(#clipPath1054)"
           id="g1052"><g
             id="g1058"><g
               id="g1060"><path
                 inkscape:connector-curvature="0"
                 id="path1070"
                 style="fill:url(#linearGradient1062);stroke:none"
                 d="m 834.399,263.996 -15.186,-4.029 c -3.413,-0.905 -4.12,-4.922 -0.341,-8.584 l 0,0 c 3.208,-3.107 7.583,-3.887 9.784,-1.086 l 0,0 7.267,11.823 c 0.331,0.564 0.251,1.099 -0.076,1.466 l 0,0 c -0.256,0.284 -0.65,0.451 -1.08,0.451 l 0,0 c -0.121,0 -0.244,-0.014 -0.368,-0.041" /></g></g></g></g><g
         id="g1072"><g
           clip-path="url(#clipPath1076)"
           id="g1074"><g
             id="g1080"><g
               id="g1082"><path
                 inkscape:connector-curvature="0"
                 id="path1092"
                 style="fill:url(#linearGradient1084);stroke:none"
                 d="m 827.744,355.089 -2.851,-1.366 c -3.026,-1.578 -4.65,-3.915 -5.22,-6.395 l 0,0 c -0.616,-2.681 -0.08,-5.437 0.92,-7.193 l 0,0 c 2.929,-5.148 22.07,-33.692 22.07,-33.692 l 0,0 c 0.597,-0.883 0.988,-2.006 0.972,-3.064 l 0,0 c -0.017,-0.985 -0.401,-1.91 -0.888,-2.667 l 0,0 -20.44,-31.413 c -0.315,-0.518 -0.32,-1.043 -0.082,-1.434 l 0,0 c 0.275,-0.452 0.849,-0.693 1.561,-0.514 l 0,0 16.174,4.493 c 0.992,0.293 1.787,0.672 2.435,1.197 l 0,0 c 0.54,0.439 0.972,0.977 1.386,1.602 l 0,0 15.947,25.164 c 1.737,2.796 1.486,5.316 -0.504,8.526 l 0,0 -28.198,45.912 c -0.411,0.608 -0.961,1.034 -1.648,1.137 l 0,0 c -0.104,0.016 -0.209,0.023 -0.316,0.023 l 0,0 c -0.409,0 -0.842,-0.112 -1.318,-0.316" /></g></g></g></g><g
         id="g1094"><g
           clip-path="url(#clipPath1098)"
           id="g1096"><g
             id="g1102"><g
               id="g1104"><path
                 inkscape:connector-curvature="0"
                 id="path1114"
                 style="fill:url(#linearGradient1106);stroke:none"
                 d="m 742.039,342.433 c -0.57,-0.141 -1.05,-0.502 -1.416,-1.023 l 0,0 -19.809,-31.866 c -1.993,-3.209 -2.241,-5.729 -0.505,-8.525 l 0,0 20.218,-32.41 c 0.441,-0.648 0.996,-1.099 1.639,-1.251 l 0,0 c 0.58,-0.139 1.202,-0.027 1.794,0.297 l 0,0 2.961,1.728 c 3.716,2.176 6.095,8.205 2.733,13.423 l 0,0 -11.745,18.122 c -1.882,2.898 -2.078,4.42 -0.08,7.453 l 0,0 11.532,17.568 c 1.966,3.005 2.405,5.969 1.793,8.529 l 0,0 c -0.628,2.626 -2.385,4.796 -4.698,6.2 l 0,0 -2.68,1.523 c -0.393,0.19 -0.802,0.296 -1.206,0.296 l 0,0 c -0.179,0 -0.356,-0.021 -0.531,-0.064" /></g></g></g></g></g></g></svg>