<svg xmlns="http://www.w3.org/2000/svg" width="802" height="378" viewBox="0 0 802 378">
  <g fill="#FFFFFF" fill-rule="evenodd" transform="matrix(1 0 0 -1 0 377.947)">
    <path fill-rule="nonzero" d="M559.023986,213.783995 C559.023986,210.017328 556.719986,207.715995 552.951986,207.715995 L530.659987,207.715995 L530.659987,263.81466 L552.951986,263.81466 C556.719986,263.81466 559.023986,261.511993 559.023986,257.743994 L559.023986,213.783995 Z M554.731986,270.61866 L525.20132,270.61866 C524.16932,270.61866 523.33332,269.78266 523.33332,268.749327 L523.33332,202.781328 C523.33332,201.749328 524.16932,200.911995 525.20132,200.911995 L554.731986,200.911995 C561.429319,200.911995 566.349319,205.833328 566.349319,212.527995 L566.349319,258.999994 C566.349319,265.799993 561.429319,270.61866 554.731986,270.61866 Z"/>
    <path d="M595.494652,177.170662 L573.142652,177.170662 C572.109319,177.170662 571.273319,176.333329 571.273319,175.302662 L571.273319,168.047996 C571.273319,167.015996 572.109319,166.179996 573.142652,166.179996 L585.327985,166.179996 L585.327985,109.333331 C585.327985,108.301597 586.163985,107.463997 587.197319,107.463997 L595.494652,107.463997 C596.527985,107.463997 597.363985,108.301597 597.363985,109.333331 L597.363985,175.302662 C597.363985,176.333329 596.527985,177.170662 595.494652,177.170662"/>
    <path fill-rule="nonzero" d="M552.534653,121.17453 C552.534653,119.605197 551.27732,118.45213 549.706653,118.45213 L538.195987,118.45213 C536.62532,118.45213 535.367987,119.605197 535.367987,121.17453 L535.367987,130.489063 C535.367987,132.059863 536.206653,133.31613 538.195987,133.943997 C540.706653,134.782663 547.090653,136.039997 549.706653,136.039997 C551.486653,136.039997 552.534653,134.88533 552.534653,133.31613 L552.534653,121.17453 Z M553.475986,147.442663 C548.346653,147.442663 541.02132,146.186663 535.367987,144.40933 L535.367987,163.459996 C535.367987,165.030663 536.62532,166.179996 538.195987,166.179996 L558.334653,166.179996 C559.367986,166.179996 560.202653,167.015996 560.202653,168.047996 L560.202653,175.302662 C560.202653,176.333329 559.367986,177.170662 558.334653,177.170662 L534.426653,177.170662 C528.251987,177.170662 523.33332,172.250662 523.33332,166.179996 L523.33332,118.45213 C523.33332,112.383864 528.146653,107.463997 534.21732,107.463997 L553.475986,107.463997 C559.650653,107.463997 564.569319,112.383864 564.569319,118.45213 L564.569319,136.454663 C564.569319,142.52533 560.591986,147.442663 553.475986,147.442663 Z"/>
    <path d="M672.323983,270.61866 L627.185318,270.61866 C626.151984,270.61866 625.314651,269.78266 625.314651,268.749327 L625.314651,265.683993 C625.314651,264.651993 626.151984,263.81466 627.185318,263.81466 L646.143984,263.81466 L646.143984,202.781328 C646.143984,201.749328 646.979984,200.911995 648.013317,200.911995 L651.601317,200.911995 C652.633317,200.911995 653.47065,201.749328 653.47065,202.781328 L653.47065,263.81466 L672.323983,263.81466 C673.355983,263.81466 674.193316,264.651993 674.193316,265.683993 L674.193316,268.749327 C674.193316,269.78266 673.355983,270.61866 672.323983,270.61866"/>
    <path fill-rule="nonzero" d="M591.293319 225.610661L603.014652 261.511993 614.631985 225.610661 591.293319 225.610661zM629.686651 203.381328L606.898651 269.37066C606.641318 270.09466 605.947985 270.61866 605.135985 270.61866L600.891985 270.61866C600.079985 270.61866 599.386652 270.09466 599.129318 269.37066L576.347986 203.393328C576.279986 203.199995 576.234652 202.998662 576.234652 202.781328 576.234652 201.749328 577.070652 200.911995 578.102652 200.911995L581.575985 200.911995C582.378652 200.911995 583.058652 201.423995 583.322652 202.133328L583.330652 202.130662 588.989319 218.915995 616.829318 218.915995 622.663984 202.189328 622.663984 202.193328C622.913318 201.453328 623.610651 200.911995 624.434651 200.911995L627.919984 200.911995C628.951984 200.911995 629.787984 201.749328 629.787984 202.781328 629.787984 202.994662 629.751984 203.190662 629.686651 203.381328zM685.551983 225.610661L697.274649 261.511993 708.891982 225.610661 685.551983 225.610661zM723.945315 203.381328L701.158649 269.37066C700.901316 270.09466 700.206649 270.61866 699.395983 270.61866L695.150649 270.61866C694.339983 270.61866 693.646649 270.09466 693.389316 269.37066L670.39865 203.507995 670.607983 203.393328C670.53865 203.199995 670.493317 202.998662 670.493317 202.781328 670.493317 201.749328 671.33065 200.911995 672.363983 200.911995L675.835983 200.911995C676.63865 200.911995 677.317316 201.423995 677.583983 202.133328L677.59065 202.130662 683.249316 218.915995 711.089316 218.915995 716.923982 202.189328 716.923982 202.193328C717.171982 201.453328 717.869315 200.911995 718.694649 200.911995L722.178649 200.911995C723.210649 200.911995 724.047982 201.749328 724.047982 202.781328 724.047982 202.994662 724.011982 203.190662 723.945315 203.381328z"/>
    <path d="M293.882659 137.74933C283.519993 137.74933 276.345326 129.56253 276.345326 119.537464L276.345326 119.363997C276.345326 109.357331 283.689326 100.989597 294.055993 100.989597 304.410659 100.989597 311.595992 109.177064 311.595992 119.20413L311.595992 119.363997C311.595992 129.389597 304.242659 137.74933 293.882659 137.74933M230.727994 136.990663L217.950661 136.990663 217.950661 120.199997 230.975994 120.199997C237.246661 120.199997 240.818661 123.541197 240.818661 128.471863L240.818661 128.637463C240.818661 134.15333 236.990661 136.990663 230.727994 136.990663"/>
    <path fill-rule="nonzero" d="M293.882659,89.1401311 C275.845326,89.1401311 262.897327,102.571864 262.897327,119.20413 L262.897327,119.363997 C262.897327,135.99733 276.015993,149.611996 294.055993,149.611996 C312.097326,149.611996 325.031992,136.15733 325.031992,119.537464 L325.031992,119.363997 C325.031992,102.749464 311.921326,89.1401311 293.882659,89.1401311 Z M257.343994,224.965328 L257.343994,278.217326 C257.343994,283.39466 261.549327,287.591993 266.71866,287.591993 C271.895993,287.591993 276.085326,283.39466 276.085326,278.217326 L276.085326,224.965328 C276.085326,219.801328 271.895993,215.595995 266.71866,215.595995 C261.549327,215.595995 257.343994,219.801328 257.343994,224.965328 Z M240.579994,90.1411977 L228.049328,108.833331 L217.950661,108.833331 L217.950661,90.1411977 L205.085328,90.1411977 L205.085328,148.60533 L231.809328,148.60533 C245.579994,148.60533 253.85466,141.335996 253.85466,129.311997 L253.85466,129.14013 C253.85466,119.707864 248.771994,113.76933 241.330661,111.016131 L255.615994,90.1411977 L240.579994,90.1411977 Z M194.542662,215.973328 L194.542662,296.222659 C194.542662,301.394659 198.738662,305.597326 203.925328,305.597326 C209.093328,305.597326 213.293328,301.394659 213.293328,296.222659 L213.293328,215.973328 C213.293328,210.805328 209.093328,206.601328 203.925328,206.601328 C198.738662,206.601328 194.542662,210.805328 194.542662,215.973328 Z M235.319994,188.595995 C240.914661,188.595995 245.450661,184.065329 245.450661,178.481329 C245.450661,172.886662 240.914661,168.362662 235.319994,168.362662 C229.730661,168.362662 225.197328,172.886662 225.197328,178.481329 C225.197328,184.065329 229.730661,188.595995 235.319994,188.595995 Z M225.945328,323.218659 C225.945328,328.401325 230.146661,332.593325 235.319994,332.593325 C240.502661,332.593325 244.687994,328.401325 244.687994,323.218659 L244.687994,206.975995 C244.687994,201.805328 240.502661,197.598662 235.319994,197.598662 C230.146661,197.598662 225.945328,201.805328 225.945328,206.975995 L225.945328,323.218659 Z M188.629329,120.199997 L188.629329,90.1411977 L175.769329,90.1411977 L175.769329,148.60533 L188.629329,148.60533 L188.629329,120.199997 Z M163.137329,242.977327 L163.137329,323.218659 C163.137329,328.401325 167.343996,332.593325 172.518662,332.593325 C177.686662,332.593325 181.886662,328.401325 181.886662,323.218659 L181.886662,242.977327 C181.886662,237.794661 177.686662,233.601327 172.518662,233.601327 C167.343996,233.601327 163.137329,237.794661 163.137329,242.977327 Z M161.541329,107.425464 C161.541329,95.8015976 152.691996,89.3026644 140.078663,89.3026644 C131.225997,89.3026644 122.296397,92.3895977 115.27973,98.6562642 L122.86933,107.763997 C128.12973,103.417197 133.650663,100.656264 140.342663,100.656264 C145.603996,100.656264 148.76933,102.749464 148.76933,106.171864 L148.76933,106.333331 C148.76933,109.605197 146.758663,111.269331 136.986663,113.76933 C125.230264,116.781197 117.608797,120.049464 117.608797,131.649463 L117.608797,131.817197 C117.608797,142.418663 126.12973,149.438663 138.070663,149.438663 C146.59333,149.438663 153.875996,146.778663 159.791996,142.00133 L153.10933,132.318797 C147.938663,135.907997 142.842663,138.08533 137.90533,138.08533 C132.980663,138.08533 130.387997,135.82933 130.387997,132.986397 L130.387997,132.801597 C130.387997,128.970797 132.892663,127.730663 143.003996,125.147864 C154.865329,122.042664 161.541329,117.785464 161.541329,107.586397 L161.541329,107.425464 Z M100.345864,224.965328 L100.345864,278.217326 C100.345864,283.39466 104.540664,287.591993 109.720797,287.591993 C114.893197,287.591993 119.084397,283.39466 119.084397,278.217326 L119.084397,224.965328 C119.084397,219.801328 114.893197,215.595995 109.720797,215.595995 C104.540664,215.595995 100.345864,219.801328 100.345864,224.965328 Z M82.9051979,89.1401311 C65.707865,89.1401311 52.9239987,102.418797 52.9239987,119.20413 L52.9239987,119.363997 C52.9239987,135.99733 65.4453317,149.611996 83.4073312,149.611996 C94.4463976,149.611996 101.030264,145.919996 106.465597,140.583996 L98.2786642,131.154663 C93.757331,135.231997 89.1739978,137.74933 83.3218646,137.74933 C73.4729315,137.74933 66.3635983,129.56253 66.3635983,119.537464 L66.3635983,119.363997 C66.3635983,109.357331 73.3046648,100.989597 83.3218646,100.989597 C90.0193311,100.989597 94.100531,103.665064 98.6953309,107.846931 L106.882264,99.5693308 C100.866664,93.145331 94.1859976,89.1401311 82.9051979,89.1401311 Z M131.737463,305.223992 C131.737463,310.401326 135.93733,314.598659 141.11733,314.598659 C146.290663,314.598659 150.494663,310.401326 150.494663,305.223992 L150.494663,233.975994 C150.494663,228.798661 146.290663,224.595994 141.11733,224.595994 C135.93733,224.595994 131.737463,228.798661 131.737463,233.975994 L131.737463,305.223992 Z M188.982662,377.953324 C84.6067979,377.953324 0,293.354659 0,188.981329 C0,84.6026646 84.6067979,0 188.982662,0 C293.354659,0 377.962657,84.6026646 377.962657,188.981329 C377.962657,293.354659 293.354659,377.953324 188.982662,377.953324 Z"/>
    <path d="M473.857321 306.817326L473.857321 306.818659 473.854655 306.821326 473.854655 299.098659C473.850655 298.602659 473.975988 298.099993 474.241321 297.639993 474.510655 297.174659 474.890655 296.810659 475.327988 296.565326L481.998655 292.714659 481.995988 292.718659 481.997321 292.718659C482.842655 292.277326 483.871988 292.217326 484.758655 292.729326L603.209318 361.115991C604.094652 361.626658 604.558652 362.549324 604.597318 363.501324L604.598652 363.501324 604.598652 363.502658 604.599985 363.498658 604.601318 371.221324C604.603985 371.715991 604.479985 372.219991 604.214652 372.679991 603.945318 373.145324 603.563985 373.509324 603.127985 373.754657L596.455985 377.605324 596.458652 377.599991 596.458652 377.601324 596.458652 377.599991C595.613318 378.042657 594.583985 378.102657 593.697318 377.590657 580.351985 369.886657 475.281321 309.223992 475.246655 309.203992 474.361321 308.691992 473.897321 307.769326 473.857321 306.817326M481.997321 85.2411979L481.997321 85.2426645 481.997321 85.2411979 481.998655 85.2453312 475.311988 81.3838646C474.879988 81.1401313 474.506655 80.7786646 474.241321 80.3197313 473.973321 79.8546647 473.847988 79.3426647 473.854655 78.841198L473.854655 71.1385316 473.857321 71.1426649C473.897321 70.1906649 474.361321 69.2666649 475.246655 68.7562649L593.697318.369270657C594.583985-.142707996 595.613318-.0828125313 596.458652.358854658L596.457318.358854658 596.458652.358854658 596.455985.354687991 603.145318 4.21458656C603.575985 4.45989322 603.949318 4.82135988 604.214652 5.2802132 604.482652 5.74530652 604.607985 6.25885318 604.601318 6.75989316L604.599985 14.4614663 604.597318 14.457333 604.598652 14.457333 604.597318 14.457333C604.557318 15.4103996 604.094652 16.3317329 603.209318 16.8437329 589.863985 24.5478661 484.793321 85.2103979 484.758655 85.2306645 483.871988 85.7426645 482.842655 85.6827979 481.997321 85.2411979M642.654651 14.452133L642.654651 14.4530663 642.654651 14.452133 642.651984 14.4562663 642.651984 6.73333317C642.647984 6.23854651 642.773317 5.73489319 643.038651 5.27447987 643.307984 4.80937321 643.689317 4.44530656 644.126651 4.20155989L650.797317.349478658 650.79465.353125325 650.795984.353125325C651.639984-.0880207978 652.67065-.14791733 653.557317.364062658L772.006647 68.7505316C772.893314 69.2625316 773.355981 70.1838649 773.395981 71.1374649L773.395981 71.1359982 773.395981 71.1374649 773.398647 71.1333316 773.399981 78.8562647C773.402647 79.3505313 773.277314 79.8546647 773.011981 80.3145313 772.743981 80.7802646 772.362647 81.1442646 771.923981 81.387998L765.254648 85.2401312 765.257314 85.2359979 765.255981 85.2359979 765.255981 85.2349312C764.411981 85.6770645 763.381314 85.7374645 762.494648 85.2254645 749.149315 77.5213314 644.079984 16.8587996 644.043984 16.8385329 643.157317 16.3265329 642.695984 15.4051996 642.654651 14.452133M800.56398 259.769327L800.565313 259.769327 800.56398 259.769327 800.569313 259.769327 793.881313 263.63066C793.454647 263.881327 792.95598 264.025327 792.42398 264.025327 791.886647 264.025327 791.381314 263.875993 790.950647 263.621327L784.27998 259.769327 784.285314 259.769327 784.28398 259.769327 784.285314 259.769327C783.478647 259.25866 782.913314 258.395994 782.913314 257.371994L782.913314 120.598397C782.913314 119.57453 783.478647 118.711997 784.28398 118.202664L784.282647 118.202664 784.28398 118.202664 784.27998 118.202664 790.96798 114.34013C791.394647 114.089597 791.893314 113.94533 792.42398 113.94533 792.962647 113.94533 793.46798 114.094797 793.898647 114.349464L800.569313 118.202664 800.56398 118.202664C801.36798 118.711997 801.93598 119.57453 801.93598 120.598397 801.93598 136.007997 801.93598 257.331994 801.93598 257.371994 801.93598 258.395994 801.369313 259.25866 800.56398 259.769327M462.969322 259.769327L462.970655 259.769327 462.969322 259.769327 462.973322 259.769327 456.286655 263.63066C455.858655 263.881327 455.359989 264.025327 454.829322 264.025327 454.291989 264.025327 453.785322 263.875993 453.354655 263.621327L446.685322 259.769327 446.689322 259.769327C445.883989 259.25866 445.315989 258.395994 445.315989 257.371994L445.315989 120.598397C445.315989 119.57453 445.883989 118.711997 446.689322 118.202664L446.687989 118.202664 446.689322 118.202664 446.685322 118.202664 453.371989 114.34013C453.799989 114.089597 454.298655 113.94533 454.829322 113.94533 455.366655 113.94533 455.871989 114.094797 456.303989 114.349464L462.973322 118.202664 462.969322 118.202664C463.773322 118.711997 464.341322 119.57453 464.341322 120.598397 464.341322 136.007997 464.341322 257.331994 464.341322 257.371994 464.341322 258.395994 463.773322 259.25866 462.969322 259.769327"/>
  </g>
</svg>
