<?xml version="1.0" encoding="UTF-8" standalone="no"?>
<svg width="770px" height="378px" viewBox="0 0 770 378" version="1.1" xmlns="http://www.w3.org/2000/svg" xmlns:xlink="http://www.w3.org/1999/xlink">
    <!-- Generator: Sketch 43.2 (39069) - http://www.bohemiancoding.com/sketch -->
    <title>g12</title>
    <desc>Created with Sketch.</desc>
    <defs></defs>
    <g id="Page-1" stroke="none" stroke-width="1" fill="none" fill-rule="evenodd">
        <g id="CSIRO-Data61" transform="translate(0.000000, -1.000000)" fill-rule="nonzero">
            <g id="g10" transform="translate(385.000000, 189.946670) scale(-1, 1) rotate(-180.000000) translate(-385.000000, -189.946670) translate(0.000000, 0.946670)">
                <g id="g12" transform="translate(0.000000, -0.000000)">
                    <g id="Group-2" transform="translate(392.000000, 0.000000)" fill="#100F0D">
                        <path d="M293.882659,137.74933 C283.519993,137.74933 276.345326,129.56253 276.345326,119.537464 L276.345326,119.363997 C276.345326,109.357331 283.689326,100.989597 294.055993,100.989597 C304.410659,100.989597 311.595992,109.177064 311.595992,119.20413 L311.595992,119.363997 C311.595992,129.389597 304.242659,137.74933 293.882659,137.74933" id="path26"></path>
                        <path d="M230.727994,136.990663 L217.950661,136.990663 L217.950661,120.199997 L230.975994,120.199997 C237.246661,120.199997 240.818661,123.541197 240.818661,128.471863 L240.818661,128.637463 C240.818661,134.15333 236.990661,136.990663 230.727994,136.990663" id="path28"></path>
                        <path d="M293.882659,89.1401311 C275.845326,89.1401311 262.897327,102.571864 262.897327,119.20413 L262.897327,119.363997 C262.897327,135.99733 276.015993,149.611996 294.055993,149.611996 C312.097326,149.611996 325.031992,136.15733 325.031992,119.537464 L325.031992,119.363997 C325.031992,102.749464 311.921326,89.1401311 293.882659,89.1401311 L293.882659,89.1401311 Z M257.343994,224.965328 L257.343994,278.217326 C257.343994,283.39466 261.549327,287.591993 266.71866,287.591993 C271.895993,287.591993 276.085326,283.39466 276.085326,278.217326 L276.085326,224.965328 C276.085326,219.801328 271.895993,215.595995 266.71866,215.595995 C261.549327,215.595995 257.343994,219.801328 257.343994,224.965328 L257.343994,224.965328 Z M240.579994,90.1411977 L228.049328,108.833331 L217.950661,108.833331 L217.950661,90.1411977 L205.085328,90.1411977 L205.085328,148.60533 L231.809328,148.60533 C245.579994,148.60533 253.85466,141.335996 253.85466,129.311997 L253.85466,129.14013 C253.85466,119.707864 248.771994,113.76933 241.330661,111.016131 L255.615994,90.1411977 L240.579994,90.1411977 Z M194.542662,215.973328 L194.542662,296.222659 C194.542662,301.394659 198.738662,305.597326 203.925328,305.597326 C209.093328,305.597326 213.293328,301.394659 213.293328,296.222659 L213.293328,215.973328 C213.293328,210.805328 209.093328,206.601328 203.925328,206.601328 C198.738662,206.601328 194.542662,210.805328 194.542662,215.973328 L194.542662,215.973328 Z M235.319994,188.595995 C240.914661,188.595995 245.450661,184.065329 245.450661,178.481329 C245.450661,172.886662 240.914661,168.362662 235.319994,168.362662 C229.730661,168.362662 225.197328,172.886662 225.197328,178.481329 C225.197328,184.065329 229.730661,188.595995 235.319994,188.595995 Z M225.945328,323.218659 C225.945328,328.401325 230.146661,332.593325 235.319994,332.593325 C240.502661,332.593325 244.687994,328.401325 244.687994,323.218659 L244.687994,206.975995 C244.687994,201.805328 240.502661,197.598662 235.319994,197.598662 C230.146661,197.598662 225.945328,201.805328 225.945328,206.975995 L225.945328,323.218659 Z M188.629329,120.199997 L188.629329,90.1411977 L175.769329,90.1411977 L175.769329,148.60533 L188.629329,148.60533 L188.629329,120.199997 Z M163.137329,242.977327 L163.137329,323.218659 C163.137329,328.401325 167.343996,332.593325 172.518662,332.593325 C177.686662,332.593325 181.886662,328.401325 181.886662,323.218659 L181.886662,242.977327 C181.886662,237.794661 177.686662,233.601327 172.518662,233.601327 C167.343996,233.601327 163.137329,237.794661 163.137329,242.977327 Z M161.541329,107.425464 C161.541329,95.8015976 152.691996,89.3026644 140.078663,89.3026644 C131.225997,89.3026644 122.296397,92.3895977 115.27973,98.6562642 L122.86933,107.763997 C128.12973,103.417197 133.650663,100.656264 140.342663,100.656264 C145.603996,100.656264 148.76933,102.749464 148.76933,106.171864 L148.76933,106.333331 C148.76933,109.605197 146.758663,111.269331 136.986663,113.76933 C125.230264,116.781197 117.608797,120.049464 117.608797,131.649463 L117.608797,131.817197 C117.608797,142.418663 126.12973,149.438663 138.070663,149.438663 C146.59333,149.438663 153.875996,146.778663 159.791996,142.00133 L153.10933,132.318797 C147.938663,135.907997 142.842663,138.08533 137.90533,138.08533 C132.980663,138.08533 130.387997,135.82933 130.387997,132.986397 L130.387997,132.801597 C130.387997,128.970797 132.892663,127.730663 143.003996,125.147864 C154.865329,122.042664 161.541329,117.785464 161.541329,107.586397 L161.541329,107.425464 Z M100.345864,224.965328 L100.345864,278.217326 C100.345864,283.39466 104.540664,287.591993 109.720797,287.591993 C114.893197,287.591993 119.084397,283.39466 119.084397,278.217326 L119.084397,224.965328 C119.084397,219.801328 114.893197,215.595995 109.720797,215.595995 C104.540664,215.595995 100.345864,219.801328 100.345864,224.965328 L100.345864,224.965328 Z M82.9051979,89.1401311 C65.707865,89.1401311 52.9239987,102.418797 52.9239987,119.20413 L52.9239987,119.363997 C52.9239987,135.99733 65.4453317,149.611996 83.4073312,149.611996 C94.4463976,149.611996 101.030264,145.919996 106.465597,140.583996 L98.2786642,131.154663 C93.757331,135.231997 89.1739978,137.74933 83.3218646,137.74933 C73.4729315,137.74933 66.3635983,129.56253 66.3635983,119.537464 L66.3635983,119.363997 C66.3635983,109.357331 73.3046648,100.989597 83.3218646,100.989597 C90.0193311,100.989597 94.100531,103.665064 98.6953309,107.846931 L106.882264,99.5693308 C100.866664,93.145331 94.1859976,89.1401311 82.9051979,89.1401311 Z M131.737463,305.223992 C131.737463,310.401326 135.93733,314.598659 141.11733,314.598659 C146.290663,314.598659 150.494663,310.401326 150.494663,305.223992 L150.494663,233.975994 C150.494663,228.798661 146.290663,224.595994 141.11733,224.595994 C135.93733,224.595994 131.737463,228.798661 131.737463,233.975994 L131.737463,305.223992 Z M188.982662,377.953324 C84.6067979,377.953324 0,293.354659 0,188.981329 C0,84.6026646 84.6067979,0 188.982662,0 C293.354659,0 377.962657,84.6026646 377.962657,188.981329 C377.962657,293.354659 293.354659,377.953324 188.982662,377.953324 L188.982662,377.953324 Z" id="path30"></path>
                    </g>
                    <g id="Group">
                        <path d="M114.023986,213.783995 C114.023986,210.017328 111.719986,207.715995 107.951986,207.715995 L85.6599867,207.715995 L85.6599867,263.81466 L107.951986,263.81466 C111.719986,263.81466 114.023986,261.511993 114.023986,257.743994 L114.023986,213.783995 Z M109.731986,270.61866 L80.2013202,270.61866 C79.1693202,270.61866 78.3333203,269.78266 78.3333203,268.749327 L78.3333203,202.781328 C78.3333203,201.749328 79.1693202,200.911995 80.2013202,200.911995 L109.731986,200.911995 C116.429319,200.911995 121.349319,205.833328 121.349319,212.527995 L121.349319,258.999994 C121.349319,265.799993 116.429319,270.61866 109.731986,270.61866 L109.731986,270.61866 Z" id="path14" fill="#100F0D"></path>
                        <path d="M150.494652,177.170662 L128.142652,177.170662 C127.109319,177.170662 126.273319,176.333329 126.273319,175.302662 L126.273319,168.047996 C126.273319,167.015996 127.109319,166.179996 128.142652,166.179996 L140.327985,166.179996 L140.327985,109.333331 C140.327985,108.301597 141.163985,107.463997 142.197319,107.463997 L150.494652,107.463997 C151.527985,107.463997 152.363985,108.301597 152.363985,109.333331 L152.363985,175.302662 C152.363985,176.333329 151.527985,177.170662 150.494652,177.170662" id="path16" fill="#100F0D"></path>
                        <path d="M107.534653,121.17453 C107.534653,119.605197 106.27732,118.45213 104.706653,118.45213 L93.1959865,118.45213 C91.6253199,118.45213 90.3679866,119.605197 90.3679866,121.17453 L90.3679866,130.489063 C90.3679866,132.059863 91.2066533,133.31613 93.1959865,133.943997 C95.7066531,134.782663 102.090653,136.039997 104.706653,136.039997 C106.486653,136.039997 107.534653,134.88533 107.534653,133.31613 L107.534653,121.17453 Z M108.475986,147.442663 C103.346653,147.442663 96.0213198,146.186663 90.3679866,144.40933 L90.3679866,163.459996 C90.3679866,165.030663 91.6253199,166.179996 93.1959865,166.179996 L113.334653,166.179996 C114.367986,166.179996 115.202653,167.015996 115.202653,168.047996 L115.202653,175.302662 C115.202653,176.333329 114.367986,177.170662 113.334653,177.170662 L89.4266533,177.170662 C83.2519868,177.170662 78.3333203,172.250662 78.3333203,166.179996 L78.3333203,118.45213 C78.3333203,112.383864 83.1466535,107.463997 89.21732,107.463997 L108.475986,107.463997 C114.650653,107.463997 119.569319,112.383864 119.569319,118.45213 L119.569319,136.454663 C119.569319,142.52533 115.591986,147.442663 108.475986,147.442663 L108.475986,147.442663 Z" id="path18" fill="#100F0D"></path>
                        <path d="M227.323983,270.61866 L182.185318,270.61866 C181.151984,270.61866 180.314651,269.78266 180.314651,268.749327 L180.314651,265.683993 C180.314651,264.651993 181.151984,263.81466 182.185318,263.81466 L201.143984,263.81466 L201.143984,202.781328 C201.143984,201.749328 201.979984,200.911995 203.013317,200.911995 L206.601317,200.911995 C207.633317,200.911995 208.47065,201.749328 208.47065,202.781328 L208.47065,263.81466 L227.323983,263.81466 C228.355983,263.81466 229.193316,264.651993 229.193316,265.683993 L229.193316,268.749327 C229.193316,269.78266 228.355983,270.61866 227.323983,270.61866" id="path20" fill="#100F0D"></path>
                        <path d="M146.293319,225.610661 L158.014652,261.511993 L169.631985,225.610661 L146.293319,225.610661 Z M184.686651,203.381328 L184.686651,203.381328 L161.898651,269.37066 C161.641318,270.09466 160.947985,270.61866 160.135985,270.61866 L155.891985,270.61866 C155.079985,270.61866 154.386652,270.09466 154.129318,269.37066 L131.347986,203.393328 L131.347986,203.393328 C131.279986,203.199995 131.234652,202.998662 131.234652,202.781328 C131.234652,201.749328 132.070652,200.911995 133.102652,200.911995 L136.575985,200.911995 C137.378652,200.911995 138.058652,201.423995 138.322652,202.133328 L138.330652,202.130662 L143.989319,218.915995 L171.829318,218.915995 L177.663984,202.189328 L177.663984,202.193328 C177.913318,201.453328 178.610651,200.911995 179.434651,200.911995 L182.919984,200.911995 C183.951984,200.911995 184.787984,201.749328 184.787984,202.781328 C184.787984,202.994662 184.751984,203.190662 184.686651,203.381328 L184.686651,203.381328 Z" id="path22" fill="#100F0D"></path>
                        <path d="M240.551983,225.610661 L252.274649,261.511993 L263.891982,225.610661 L240.551983,225.610661 Z M278.945315,203.381328 L278.945315,203.381328 L256.158649,269.37066 C255.901316,270.09466 255.206649,270.61866 254.395983,270.61866 L250.150649,270.61866 C249.339983,270.61866 248.646649,270.09466 248.389316,269.37066 L225.39865,203.507995 L225.607983,203.393328 C225.53865,203.199995 225.493317,202.998662 225.493317,202.781328 C225.493317,201.749328 226.33065,200.911995 227.363983,200.911995 L230.835983,200.911995 C231.63865,200.911995 232.317316,201.423995 232.583983,202.133328 L232.59065,202.130662 L238.249316,218.915995 L266.089316,218.915995 L271.923982,202.189328 L271.923982,202.193328 C272.171982,201.453328 272.869315,200.911995 273.694649,200.911995 L277.178649,200.911995 C278.210649,200.911995 279.047982,201.749328 279.047982,202.781328 C279.047982,202.994662 279.011982,203.190662 278.945315,203.381328 L278.945315,203.381328 Z" id="path24" fill="#100F0D"></path>
                        <path d="M28.8573215,306.817326 L28.8573215,306.818659 L28.8573215,306.818659 L28.8546548,306.821326 L28.8546548,299.098659 C28.8506548,298.602659 28.9759882,298.099993 29.2413215,297.639993 C29.5106548,297.174659 29.8906548,296.810659 30.3279881,296.565326 L36.9986546,292.714659 L36.995988,292.718659 L36.9973213,292.718659 L36.9973213,292.718659 C37.8426546,292.277326 38.8719879,292.217326 39.7586545,292.729326 L158.209318,361.115991 C159.094652,361.626658 159.558652,362.549324 159.597318,363.501324 L159.598652,363.501324 L159.598652,363.502658 L159.599985,363.498658 L159.601318,371.221324 C159.603985,371.715991 159.479985,372.219991 159.214652,372.679991 C158.945318,373.145324 158.563985,373.509324 158.127985,373.754657 L151.455985,377.605324 L151.458652,377.599991 L151.458652,377.601324 L151.458652,377.599991 C150.613318,378.042657 149.583985,378.102657 148.697318,377.590657 C135.351985,369.886657 30.2813215,309.223992 30.2466548,309.203992 C29.3613215,308.691992 28.8973215,307.769326 28.8573215,306.817326" id="path32" fill="#45BE7F"></path>
                        <path d="M36.9973213,85.2411979 L36.9973213,85.2426645 L36.9973213,85.2411979 L36.9986546,85.2453312 L30.3119881,81.3838646 C29.8799881,81.1401313 29.5066548,80.7786646 29.2413215,80.3197313 C28.9733215,79.8546647 28.8479882,79.3426647 28.8546548,78.841198 L28.8546548,71.1385316 L28.8573215,71.1426649 L28.8573215,71.1426649 L28.8573215,71.1426649 C28.8973215,70.1906649 29.3613215,69.2666649 30.2466548,68.7562649 L148.697318,0.369270657 C149.583985,-0.142707996 150.613318,-0.0828125313 151.458652,0.358854658 L151.457318,0.358854658 L151.458652,0.358854658 L151.455985,0.354687991 L158.145318,4.21458656 C158.575985,4.45989322 158.949318,4.82135988 159.214652,5.2802132 C159.482652,5.74530652 159.607985,6.25885318 159.601318,6.75989316 L159.599985,14.4614663 L159.597318,14.457333 L159.598652,14.457333 L159.597318,14.457333 C159.557318,15.4103996 159.094652,16.3317329 158.209318,16.8437329 C144.863985,24.5478661 39.7933212,85.2103979 39.7586545,85.2306645 C38.8719879,85.7426645 37.8426546,85.6827979 36.9973213,85.2411979" id="path34" fill="#45BE7F"></path>
                        <path d="M197.654651,14.452133 L197.654651,14.4530663 L197.654651,14.452133 L197.651984,14.4562663 L197.651984,6.73333317 C197.647984,6.23854651 197.773317,5.73489319 198.038651,5.27447987 C198.307984,4.80937321 198.689317,4.44530656 199.126651,4.20155989 L205.797317,0.349478658 L205.79465,0.353125325 L205.795984,0.353125325 L205.795984,0.353125325 C206.639984,-0.0880207978 207.67065,-0.14791733 208.557317,0.364062658 L327.006647,68.7505316 C327.893314,69.2625316 328.355981,70.1838649 328.395981,71.1374649 L328.395981,71.1359982 L328.395981,71.1374649 L328.398647,71.1333316 L328.399981,78.8562647 C328.402647,79.3505313 328.277314,79.8546647 328.011981,80.3145313 C327.743981,80.7802646 327.362647,81.1442646 326.923981,81.387998 L320.254648,85.2401312 L320.257314,85.2359979 L320.255981,85.2359979 L320.255981,85.2349312 C319.411981,85.6770645 318.381314,85.7374645 317.494648,85.2254645 C304.149315,77.5213314 199.079984,16.8587996 199.043984,16.8385329 C198.157317,16.3265329 197.695984,15.4051996 197.654651,14.452133" id="path36" fill="#45BE7F"></path>
                        <path d="M355.56398,259.769327 L355.565313,259.769327 L355.56398,259.769327 L355.569313,259.769327 L348.881313,263.63066 C348.454647,263.881327 347.95598,264.025327 347.42398,264.025327 C346.886647,264.025327 346.381314,263.875993 345.950647,263.621327 L339.27998,259.769327 L339.285314,259.769327 L339.28398,259.769327 L339.285314,259.769327 C338.478647,259.25866 337.913314,258.395994 337.913314,257.371994 L337.913314,120.598397 C337.913314,119.57453 338.478647,118.711997 339.28398,118.202664 L339.282647,118.202664 L339.28398,118.202664 L339.27998,118.202664 L345.96798,114.34013 C346.394647,114.089597 346.893314,113.94533 347.42398,113.94533 C347.962647,113.94533 348.46798,114.094797 348.898647,114.349464 L355.569313,118.202664 L355.56398,118.202664 L355.56398,118.202664 L355.56398,118.202664 C356.36798,118.711997 356.93598,119.57453 356.93598,120.598397 L356.93598,257.371994 C356.93598,258.395994 356.369313,259.25866 355.56398,259.769327" id="path38" fill="#45BE7F"></path>
                        <path d="M17.9693218,259.769327 L17.9706551,259.769327 L17.9693218,259.769327 L17.9733218,259.769327 L11.2866553,263.63066 C10.8586553,263.881327 10.3599886,264.025327 9.82932196,264.025327 C9.29198864,264.025327 8.78532199,263.875993 8.35465533,263.621327 L1.68532217,259.769327 L1.68932217,259.769327 L1.68932217,259.769327 L1.68932217,259.769327 C0.883988853,259.25866 0.315988867,258.395994 0.315988867,257.371994 L0.315988867,120.598397 C0.315988867,119.57453 0.883988853,118.711997 1.68932217,118.202664 L1.68798883,118.202664 L1.68932217,118.202664 L1.68532217,118.202664 L8.37198867,114.34013 C8.79998866,114.089597 9.29865531,113.94533 9.82932196,113.94533 C10.3666553,113.94533 10.8719886,114.094797 11.3039886,114.349464 L17.9733218,118.202664 L17.9693218,118.202664 L17.9693218,118.202664 L17.9693218,118.202664 C18.7733217,118.711997 19.3413217,119.57453 19.3413217,120.598397 L19.3413217,257.371994 C19.3413217,258.395994 18.7733217,259.25866 17.9693218,259.769327" id="path40" fill="#45BE7F"></path>
                    </g>
                </g>
            </g>
        </g>
    </g>
</svg>