<?xml version="1.0" encoding="utf-8"?>
<!-- Generator: Adobe Illustrator 16.0.0, SVG Export Plug-In . SVG Version: 6.00 Build 0)  -->
<!DOCTYPE svg PUBLIC "-//W3C//DTD SVG 1.1//EN" "http://www.w3.org/Graphics/SVG/1.1/DTD/svg11.dtd">
<svg version="1.1" id="Layer_1" xmlns="http://www.w3.org/2000/svg" xmlns:xlink="http://www.w3.org/1999/xlink" x="0px" y="0px"
	 width="113.387px" height="56px" viewBox="0 0 113.387 56" enable-background="new 0 0 113.387 56" xml:space="preserve">
<title>banner</title>
<desc>Created with Sketch.</desc>
<g id="csiro-data61" transform="translate(276.000000, 8.000000)">
	<path id="Fill-1" fill="#FFFFFF" d="M-200.746,15.601c0,0.519-0.32,0.835-0.846,0.835h-3.101V8.714h3.101
		c0.525,0,0.846,0.317,0.846,0.836V15.601z M-201.344,7.777h-4.107c-0.145,0-0.261,0.116-0.261,0.258v9.081
		c0,0.144,0.116,0.259,0.261,0.259h4.107c0.931,0,1.616-0.677,1.616-1.599V9.376C-199.728,8.441-200.413,7.777-201.344,7.777z"/>
	<path id="Fill-2" fill="#FFFFFF" d="M-195.672,20.645h-3.11c-0.145,0-0.262,0.114-0.262,0.258v0.996c0,0.143,0.117,0.26,0.262,0.26
		h1.694v7.825c0,0.143,0.116,0.26,0.26,0.26h1.156c0.142,0,0.26-0.117,0.26-0.26v-9.079
		C-195.412,20.759-195.531,20.645-195.672,20.645"/>
	<path id="Fill-3" fill="#FFFFFF" d="M-201.65,28.353c0,0.217-0.175,0.375-0.394,0.375h-1.6c-0.222,0-0.394-0.158-0.394-0.375
		v-1.283c0-0.214,0.114-0.389,0.394-0.475c0.348-0.114,1.236-0.288,1.6-0.288c0.249,0,0.394,0.157,0.394,0.374V28.353z
		 M-201.52,24.736c-0.714,0-1.734,0.172-2.519,0.418v-2.623c0-0.217,0.173-0.374,0.395-0.374h2.801c0.142,0,0.26-0.116,0.26-0.259
		v-0.996c0-0.144-0.118-0.26-0.26-0.26h-3.326c-0.862,0-1.544,0.677-1.544,1.513v6.569c0,0.837,0.669,1.514,1.513,1.514h2.68
		c0.858,0,1.543-0.677,1.543-1.514v-2.478C-199.977,25.413-200.528,24.736-201.52,24.736z"/>
	<path id="Fill-4" fill="#FFFFFF" d="M-184.984,7.777h-6.278c-0.146,0-0.262,0.116-0.262,0.258v0.422
		c0,0.143,0.115,0.257,0.262,0.257h2.637v8.401c0,0.144,0.116,0.259,0.262,0.259h0.497c0.146,0,0.26-0.115,0.26-0.259V8.714h2.624
		c0.145,0,0.262-0.116,0.262-0.257V8.035C-184.722,7.893-184.839,7.777-184.984,7.777"/>
	<path id="Fill-5" fill="#FFFFFF" d="M-196.261,13.975l1.633-4.942l1.617,4.942H-196.261z M-190.913,17.034l-3.172-9.085
		c-0.037-0.1-0.131-0.172-0.245-0.172h-0.592c-0.11,0-0.209,0.072-0.245,0.172l-3.169,9.083c-0.01,0.027-0.018,0.054-0.018,0.083
		c0,0.144,0.118,0.259,0.261,0.259h0.481c0.116,0,0.207-0.071,0.246-0.169v0.001l0.787-2.311h3.874l0.812,2.303l0,0
		c0.034,0.101,0.131,0.176,0.247,0.176h0.484c0.143,0,0.261-0.115,0.261-0.259C-190.901,17.089-190.907,17.061-190.913,17.034z"/>
	<path id="Fill-6" fill="#FFFFFF" d="M-183.144,13.975l1.632-4.942l1.616,4.942H-183.144z M-177.8,17.034l-3.171-9.085
		c-0.034-0.1-0.131-0.172-0.247-0.172h-0.589c-0.112,0-0.209,0.072-0.244,0.172l-3.2,9.068l0.029,0.015
		c-0.01,0.027-0.016,0.054-0.016,0.083c0,0.144,0.116,0.259,0.262,0.259h0.481c0.111,0,0.207-0.071,0.242-0.169l0.003,0.001
		l0.786-2.311h3.873l0.812,2.303l0,0c0.033,0.101,0.134,0.176,0.248,0.176h0.483c0.146,0,0.26-0.115,0.26-0.259
		C-177.788,17.089-177.792,17.061-177.8,17.034z"/>
	<path id="Fill-7" fill="#FFFFFF" d="M-167.14,9.271L-167.14,9.271L-167.14,9.271l-0.931-0.533
		c-0.058-0.034-0.127-0.054-0.203-0.054c-0.073,0-0.146,0.021-0.204,0.057l-0.93,0.531h0.002l0,0l0,0
		c-0.113,0.069-0.19,0.189-0.19,0.329v18.833c0,0.142,0.077,0.259,0.19,0.329h-0.002l0.93,0.53c0.063,0.034,0.131,0.054,0.204,0.054
		c0.076,0,0.146-0.02,0.207-0.056l0.927-0.528l0,0l0,0l0,0c0.112-0.071,0.19-0.188,0.19-0.329V9.601
		C-166.949,9.46-167.029,9.341-167.14,9.271"/>
	<path id="Fill-9" fill="#FFFFFF" d="M-212.599,2.794L-212.599,2.794L-212.599,2.794L-212.599,2.794v1.062
		c0,0.068,0.02,0.139,0.054,0.202c0.038,0.064,0.092,0.114,0.154,0.147l0.926,0.531l0,0l0,0l0,0c0.119,0.06,0.261,0.068,0.385-0.003
		l16.482-9.413c0.122-0.072,0.187-0.198,0.192-0.329v-0.001v0.001v-1.062c0-0.068-0.017-0.139-0.053-0.202
		c-0.039-0.063-0.091-0.114-0.153-0.147l-0.927-0.529l0,0c-0.118-0.062-0.261-0.069-0.382,0.001
		c-1.857,1.06-16.48,9.411-16.483,9.415C-212.527,2.536-212.591,2.663-212.599,2.794"/>
	<path id="Fill-10" fill="#FFFFFF" d="M-211.465,33.297L-211.465,33.297L-211.465,33.297L-211.465,33.297l-0.931,0.532
		c-0.061,0.033-0.111,0.084-0.149,0.15c-0.035,0.062-0.054,0.132-0.054,0.202v1.06l0,0c0.008,0.129,0.073,0.257,0.195,0.325
		l16.483,9.416c0.122,0.071,0.265,0.063,0.382,0l0,0l0,0l0,0l0.931-0.531c0.06-0.029,0.11-0.079,0.149-0.145
		c0.036-0.067,0.053-0.133,0.053-0.204v-1.06l0,0c-0.006-0.128-0.07-0.256-0.192-0.328c-1.856-1.06-16.478-9.411-16.482-9.413
		C-211.204,33.229-211.348,33.239-211.465,33.297"/>
	<path id="Fill-11" fill="#FFFFFF" d="M-189.112,43.044L-189.112,43.044L-189.112,43.044L-189.112,43.044v1.064
		c0,0.069,0.017,0.138,0.055,0.2c0.037,0.064,0.09,0.114,0.151,0.149l0.928,0.528l0,0l0,0c0.117,0.061,0.262,0.068,0.382,0
		l16.482-9.416c0.123-0.072,0.187-0.198,0.194-0.328l0,0l0,0l0,0v-1.065c0-0.066-0.019-0.135-0.053-0.197
		c-0.038-0.065-0.092-0.116-0.154-0.15l-0.925-0.526l0,0l0,0l0,0c-0.12-0.063-0.262-0.07-0.384,0
		c-1.857,1.062-16.479,9.412-16.483,9.412C-189.042,42.788-189.106,42.915-189.112,43.044"/>
	<path id="Fill-12" fill="#FFFFFF" d="M-214.111,9.271L-214.111,9.271L-214.111,9.271l-0.93-0.533
		c-0.062-0.034-0.13-0.054-0.204-0.054c-0.075,0-0.146,0.021-0.206,0.057l-0.927,0.531l0,0l0,0
		c-0.111,0.069-0.191,0.189-0.191,0.329v18.833c0,0.142,0.08,0.259,0.191,0.329l0,0l0,0l0,0l0.93,0.53
		c0.058,0.034,0.129,0.054,0.203,0.054s0.147-0.02,0.206-0.056l0.928-0.528l0,0c0.111-0.071,0.188-0.188,0.188-0.329V9.601
		C-213.922,9.46-214,9.341-214.111,9.271"/>
	<g id="Group-2">
		<path id="Fill-16" fill="#FFFFFF" d="M-234.356,26.386c-1.381,0-2.337,1.084-2.337,2.416v0.023c0,1.321,0.98,2.434,2.359,2.434
			c1.38,0,2.338-1.089,2.338-2.416v-0.018C-231.996,27.496-232.977,26.386-234.356,26.386"/>
		<path id="Fill-17" fill="#FFFFFF" d="M-242.77,26.487h-1.701v2.224h1.734c0.836,0,1.311-0.444,1.311-1.097v-0.021
			C-241.426,26.861-241.936,26.487-242.77,26.487"/>
		<path id="Fill-18" fill="#FFFFFF" d="M-234.356,32.827c-2.403,0-4.129-1.78-4.129-3.984v-0.018c0-2.207,1.75-4.014,4.151-4.014
			c2.402,0,4.125,1.785,4.125,3.99v0.023C-230.209,31.023-231.956,32.827-234.356,32.827z M-239.225,14.829V7.772
			c0-0.686,0.562-1.242,1.249-1.242c0.691,0,1.248,0.556,1.248,1.242v7.057c0,0.685-0.557,1.24-1.248,1.24
			C-238.664,16.069-239.225,15.513-239.225,14.829z M-241.456,32.693l-1.67-2.476h-1.345v2.476h-1.713v-7.745h3.56
			c1.834,0,2.938,0.963,2.938,2.558v0.023c0,1.249-0.679,2.036-1.67,2.402l1.903,2.764h-2.001V32.693z M-247.589,16.02V5.386
			c0-0.687,0.56-1.243,1.25-1.243c0.687,0,1.245,0.557,1.245,1.243V16.02c0,0.684-0.559,1.241-1.245,1.241
			C-247.03,17.263-247.589,16.705-247.589,16.02z M-242.157,19.648c0.744,0,1.348,0.6,1.348,1.341c0,0.739-0.604,1.34-1.348,1.34
			c-0.746,0-1.351-0.601-1.351-1.34C-243.508,20.248-242.904,19.648-242.157,19.648z M-243.408,1.809
			c0-0.687,0.562-1.242,1.25-1.242s1.247,0.555,1.247,1.242v15.403c0,0.685-0.559,1.243-1.247,1.243s-1.25-0.56-1.25-1.243V1.809z
			 M-248.378,28.711v3.982h-1.711v-7.745h1.711V28.711z M-251.774,12.441V1.809c0-0.687,0.561-1.242,1.25-1.242
			c0.687,0,1.249,0.555,1.249,1.242v10.634c0,0.688-0.561,1.243-1.249,1.243C-251.215,13.684-251.774,13.128-251.774,12.441z
			 M-251.986,30.404c0,1.54-1.179,2.4-2.859,2.4c-1.179,0-2.37-0.408-3.305-1.237l1.011-1.209c0.7,0.577,1.435,0.942,2.326,0.942
			c0.702,0,1.123-0.277,1.123-0.73v-0.021c0-0.435-0.267-0.654-1.57-0.985c-1.565-0.398-2.58-0.831-2.58-2.37v-0.021
			c0-1.403,1.134-2.334,2.726-2.334c1.134,0,2.106,0.35,2.894,0.985l-0.891,1.283c-0.689-0.478-1.367-0.766-2.026-0.766
			c-0.655,0-0.999,0.301-0.999,0.676v0.025c0,0.508,0.333,0.671,1.678,1.012c1.58,0.414,2.47,0.977,2.47,2.329v0.021H-251.986z
			 M-260.139,14.829V7.772c0-0.686,0.559-1.242,1.25-1.242c0.688,0,1.247,0.556,1.247,1.242v7.057c0,0.685-0.559,1.24-1.247,1.24
			C-259.58,16.069-260.139,15.513-260.139,14.829z M-262.461,32.827c-2.292,0-3.996-1.76-3.996-3.984v-0.018
			c0-2.207,1.668-4.014,4.062-4.014c1.47,0,2.347,0.491,3.07,1.198l-1.088,1.252c-0.603-0.541-1.212-0.875-1.991-0.875
			c-1.313,0-2.259,1.085-2.259,2.416v0.024c0,1.321,0.924,2.433,2.259,2.433c0.892,0,1.435-0.357,2.047-0.909l1.092,1.097
			C-260.069,32.295-260.958,32.827-262.461,32.827z M-255.957,4.194c0-0.687,0.561-1.243,1.25-1.243
			c0.688,0,1.249,0.557,1.249,1.243v9.441c0,0.686-0.56,1.244-1.249,1.244c-0.69,0-1.25-0.558-1.25-1.244V4.194z M-248.331-5.445
			c-13.903,0-25.173,11.211-25.173,25.041c0,13.833,11.271,25.047,25.173,25.047s25.173-11.214,25.173-25.047
			C-223.156,5.766-234.428-5.445-248.331-5.445z"/>
	</g>
</g>
</svg>
